<svg class="ugb-custom-icon" id="svg" version="1.1" xmlns="http://www.w3.org/2000/svg" xmlns:xlink="http://www.w3.org/1999/xlink" width="32" height="32" viewBox="0, 0, 400,275.38337368845845" aria-hidden="true"><g id="svgg"><path id="path0" d="M34.298 17.484 C 26.765 19.127,20.674 25.166,18.138 33.504 C 16.755 38.051,16.806 201.813,18.194 216.391 C 20.439 239.962,36.872 255.581,61.828 257.866 C 65.509 258.203,215.120 257.720,232.735 257.314 C 243.690 257.062,245.128 256.839,251.719 254.379 C 271.588 246.964,283.901 229.490,286.113 205.569 C 286.344 203.070,286.195 203.148,291.185 202.937 C 344.829 200.672,384.345 161.946,384.417 111.570 C 384.490 59.968,349.949 21.918,298.898 17.364 C 293.728 16.903,36.427 17.020,34.298 17.484 M302.820 36.029 C 341.030 42.315,365.213 70.095,366.303 108.953 C 367.549 153.389,333.667 184.422,283.283 184.989 L 275.519 185.077 273.848 185.826 C 269.808 187.640,268.880 189.651,268.423 197.595 C 267.101 220.569,259.577 232.719,243.388 238.026 L 240.634 238.929 232.369 239.141 C 216.232 239.554,65.491 240.026,62.440 239.674 C 48.460 238.058,39.646 230.836,36.880 218.733 C 35.759 213.831,35.113 158.305,35.327 85.262 C 35.474 35.130,35.379 37.883,37.008 36.154 L 37.854 35.257 168.445 35.331 L 299.036 35.406 302.820 36.029 M275.571 60.003 C 272.795 60.986,270.750 63.008,269.864 65.643 C 269.088 67.954,269.200 152.555,269.982 154.645 C 271.932 159.856,274.815 160.775,288.430 160.523 C 303.009 160.254,305.854 159.753,313.600 156.093 C 332.238 147.284,341.598 131.138,341.598 107.794 C 341.598 83.608,327.405 65.311,304.852 60.422 C 300.277 59.431,278.083 59.112,275.571 60.003 M302.701 78.618 C 316.872 82.589,324.629 94.816,323.431 111.295 C 322.386 125.677,317.503 133.779,306.607 139.212 C 301.500 141.758,297.985 142.424,289.664 142.424 L 287.603 142.424 287.603 110.239 C 287.603 92.537,287.696 77.958,287.810 77.841 C 288.363 77.272,300.080 77.884,302.701 78.618 " stroke="none" fill="#040404" fill-rule="evenodd"></path><path id="path1" d="M112.121 79.354 C 86.671 81.674,74.319 103.220,83.192 129.815 C 86.269 139.038,89.603 144.094,99.495 154.545 C 108.294 163.841,139.581 193.322,149.567 201.728 C 152.032 203.802,152.845 203.447,159.229 197.513 C 183.282 175.152,202.010 156.619,211.696 145.592 C 232.606 121.788,226.788 89.844,199.904 80.849 C 185.331 75.973,166.906 81.270,154.416 93.926 C 152.383 95.986,152.797 96.055,149.633 93.129 C 138.477 82.810,125.695 78.116,112.121 79.354 " stroke="none" fill="#fc5454" fill-rule="evenodd"></path><path id="path2" d="M33.609 3.334 C 18.868 5.693,7.735 16.471,4.083 31.918 C 2.483 38.688,2.796 206.343,4.434 219.958 C 7.774 247.716,27.895 267.351,57.300 271.547 C 62.731 272.322,234.892 271.872,242.700 271.062 C 268.989 268.335,291.558 247.248,297.967 219.421 C 298.176 218.512,298.410 217.495,298.487 217.161 C 298.586 216.731,298.888 216.512,299.520 216.412 C 311.512 214.521,312.978 214.234,318.871 212.624 C 378.646 196.296,410.433 141.003,394.623 80.854 C 388.886 59.028,378.190 42.011,361.326 27.878 C 356.136 23.529,346.005 17.112,339.532 14.074 C 337.865 13.291,336.276 12.526,336.001 12.372 C 333.028 10.716,321.524 7.004,315.273 5.684 C 313.449 5.299,311.777 4.917,311.557 4.834 C 311.337 4.752,308.740 4.347,305.785 3.934 L 300.413 3.183 167.769 3.137 C 92.468 3.111,34.469 3.196,33.609 3.334 M303.581 17.166 C 353.373 24.745,385.103 61.428,385.120 111.433 C 385.138 163.074,347.214 199.562,289.187 203.733 L 286.777 203.906 286.777 204.729 C 286.777 208.931,284.370 219.392,282.033 225.344 C 274.518 244.486,257.372 256.912,237.190 257.841 C 219.626 258.649,61.948 258.830,57.682 258.047 C 34.492 253.788,20.489 239.758,17.794 218.084 C 16.667 209.013,16.049 39.734,17.127 35.105 C 19.256 25.960,25.542 19.065,33.550 17.090 C 36.728 16.306,298.415 16.379,303.581 17.166 M37.423 36.570 C 35.851 38.281,35.949 33.666,35.962 105.234 C 35.974 176.550,36.320 211.088,37.073 216.253 C 38.969 229.251,47.837 237.300,62.259 239.113 C 68.775 239.932,237.768 238.889,241.224 238.008 C 258.298 233.657,266.462 221.159,267.878 197.201 C 268.283 190.351,268.630 189.208,270.963 187.058 C 273.454 184.761,274.654 184.424,280.017 184.512 C 340.993 185.518,378.449 140.656,362.077 86.226 C 354.246 60.189,332.555 41.691,304.270 36.929 C 297.597 35.805,298.544 35.813,166.512 35.813 L 38.120 35.813 37.423 36.570 M300.689 59.234 C 325.294 61.980,342.206 81.721,342.221 107.713 C 342.237 133.901,330.154 151.658,307.074 159.367 C 301.488 161.233,278.804 161.935,274.849 160.365 C 271.800 159.153,269.419 156.112,268.863 152.717 C 268.489 150.435,268.509 69.564,268.884 67.253 C 269.490 63.517,271.854 60.654,275.322 59.455 C 276.959 58.889,296.103 58.723,300.689 59.234 M288.154 110.095 L 288.154 141.953 292.493 141.755 C 299.495 141.435,300.744 141.225,304.128 139.797 C 315.228 135.112,321.135 126.955,322.608 114.279 C 325.193 92.044,313.717 78.246,292.631 78.239 L 288.154 78.237 288.154 110.095 M195.794 79.323 C 222.443 84.761,232.969 113.348,217.587 138.503 C 212.795 146.339,192.739 166.928,162.672 194.875 C 151.309 205.437,152.676 205.182,144.904 198.189 C 122.926 178.415,100.152 156.487,93.425 148.623 C 75.353 127.495,75.371 97.558,93.463 85.432 C 110.076 74.298,133.698 77.362,149.867 92.749 L 152.344 95.106 153.864 93.765 C 157.962 90.150,159.336 89.062,162.324 87.065 C 173.390 79.667,184.683 77.056,195.794 79.323 M305.104 95.738 C 309.659 100.297,310.946 108.554,308.513 117.614 C 307.579 121.089,303.689 125.895,301.809 125.895 C 301.723 125.895,301.653 118.512,301.653 109.489 L 301.653 93.082 302.548 93.579 C 303.041 93.853,304.191 94.825,305.104 95.738 " stroke="none" fill="#fbfbfb" fill-rule="evenodd"></path><path id="path3" d="M296.629 16.999 C 296.971 17.065,297.467 17.063,297.730 16.994 C 297.994 16.925,297.713 16.871,297.107 16.874 C 296.501 16.877,296.286 16.933,296.629 16.999 M23.952 22.796 L 23.003 23.829 24.036 22.880 C 24.604 22.358,25.069 21.893,25.069 21.847 C 25.069 21.636,24.836 21.835,23.952 22.796 M296.212 35.727 C 296.477 35.796,296.911 35.796,297.176 35.727 C 297.441 35.658,297.225 35.601,296.694 35.601 C 296.164 35.601,295.947 35.658,296.212 35.727 M16.935 59.229 C 16.935 70.365,16.969 74.921,17.011 69.353 C 17.053 63.784,17.053 54.673,17.011 49.105 C 16.969 43.537,16.935 48.092,16.935 59.229 M35.667 57.713 C 35.667 67.865,35.702 71.978,35.744 66.853 C 35.786 61.729,35.786 53.423,35.744 48.396 C 35.702 43.369,35.667 47.562,35.667 57.713 M357.163 42.700 C 358.062 43.609,358.860 44.353,358.936 44.353 C 359.012 44.353,358.338 43.609,357.438 42.700 C 356.538 41.791,355.740 41.047,355.665 41.047 C 355.589 41.047,356.263 41.791,357.163 42.700 M360.595 46.074 C 361.736 47.291,361.983 47.509,361.983 47.303 C 361.983 47.258,361.395 46.669,360.675 45.994 L 359.366 44.766 360.595 46.074 M345.592 57.576 C 346.950 58.939,348.122 60.055,348.198 60.055 C 348.274 60.055,347.225 58.939,345.868 57.576 C 344.510 56.212,343.338 55.096,343.262 55.096 C 343.186 55.096,344.235 56.212,345.592 57.576 M298.278 59.423 C 298.619 59.489,299.177 59.489,299.518 59.423 C 299.859 59.357,299.580 59.304,298.898 59.304 C 298.216 59.304,297.937 59.357,298.278 59.423 M269.005 110.055 C 269.005 133.237,269.037 142.680,269.077 131.039 C 269.117 119.398,269.117 100.431,269.077 88.890 C 269.037 77.349,269.005 86.873,269.005 110.055 M325.069 69.783 C 325.069 69.831,325.472 70.233,325.964 70.678 L 326.860 71.488 326.050 70.592 C 325.296 69.758,325.069 69.570,325.069 69.783 M329.201 73.915 C 329.201 73.963,329.604 74.366,330.096 74.811 L 330.992 75.620 330.183 74.725 C 329.428 73.890,329.201 73.703,329.201 73.915 M287.787 78.145 C 287.532 78.400,287.555 141.811,287.810 141.968 C 287.924 142.039,288.017 127.666,288.017 110.029 C 288.017 92.392,288.006 77.961,287.994 77.961 C 287.981 77.961,287.888 78.044,287.787 78.145 M297.590 78.151 C 297.855 78.221,298.289 78.221,298.554 78.151 C 298.819 78.082,298.602 78.025,298.072 78.025 C 297.541 78.025,297.324 78.082,297.590 78.151 M336.831 84.707 C 337.083 85.236,337.338 85.619,337.398 85.559 C 337.524 85.433,336.687 83.747,336.499 83.747 C 336.429 83.747,336.579 84.179,336.831 84.707 M314.738 85.950 C 315.638 86.860,316.436 87.603,316.512 87.603 C 316.587 87.603,315.913 86.860,315.014 85.950 C 314.114 85.041,313.316 84.298,313.240 84.298 C 313.165 84.298,313.839 85.041,314.738 85.950 M384.642 105.096 C 384.646 105.702,384.702 105.918,384.768 105.575 C 384.834 105.233,384.831 104.737,384.762 104.473 C 384.693 104.210,384.639 104.490,384.642 105.096 M365.904 105.785 C 365.904 106.315,365.961 106.532,366.030 106.267 C 366.099 106.002,366.099 105.568,366.030 105.303 C 365.961 105.038,365.904 105.255,365.904 105.785 M323.237 107.713 C 323.237 109.001,323.284 109.528,323.342 108.884 C 323.400 108.240,323.400 107.187,323.342 106.543 C 323.284 105.899,323.237 106.426,323.237 107.713 M341.968 107.576 C 341.969 108.788,342.017 109.249,342.075 108.602 C 342.134 107.954,342.133 106.962,342.074 106.398 C 342.014 105.834,341.967 106.364,341.968 107.576 M365.904 116.804 C 365.904 117.335,365.961 117.552,366.030 117.287 C 366.099 117.021,366.099 116.587,366.030 116.322 C 365.961 116.057,365.904 116.274,365.904 116.804 M384.642 117.493 C 384.646 118.099,384.702 118.315,384.768 117.972 C 384.834 117.629,384.831 117.133,384.762 116.870 C 384.693 116.607,384.639 116.887,384.642 117.493 M16.934 147.383 C 16.934 156.550,16.968 160.300,17.011 155.716 C 17.053 151.133,17.053 143.633,17.011 139.050 C 16.968 134.466,16.934 138.216,16.934 147.383 M314.593 133.264 L 312.810 135.124 314.669 133.341 C 315.692 132.361,316.529 131.524,316.529 131.482 C 316.529 131.279,316.248 131.537,314.593 133.264 M35.666 149.587 C 35.666 158.147,35.701 161.649,35.744 157.369 C 35.786 153.089,35.786 146.085,35.744 141.804 C 35.701 137.524,35.666 141.026,35.666 149.587 M297.180 141.793 C 297.522 141.859,298.018 141.856,298.281 141.787 C 298.545 141.718,298.264 141.664,297.658 141.667 C 297.052 141.670,296.837 141.727,297.180 141.793 M292.498 142.073 C 292.993 142.134,293.737 142.133,294.151 142.070 C 294.565 142.007,294.160 141.957,293.251 141.959 C 292.342 141.960,292.003 142.012,292.498 142.073 M345.861 161.226 L 343.664 163.499 345.937 161.301 C 348.047 159.260,348.335 158.953,348.134 158.953 C 348.093 158.953,347.070 159.976,345.861 161.226 M301.171 160.245 C 301.436 160.314,301.870 160.314,302.135 160.245 C 302.400 160.176,302.183 160.119,301.653 160.119 C 301.123 160.119,300.906 160.176,301.171 160.245 M298.006 160.525 C 298.349 160.591,298.845 160.589,299.108 160.520 C 299.371 160.451,299.091 160.397,298.485 160.400 C 297.879 160.403,297.663 160.460,298.006 160.525 M277.893 160.800 C 278.233 160.866,278.791 160.866,279.132 160.800 C 279.473 160.735,279.194 160.681,278.512 160.681 C 277.831 160.681,277.552 160.735,277.893 160.800 M293.049 160.806 C 293.544 160.867,294.288 160.866,294.702 160.803 C 295.116 160.740,294.711 160.690,293.802 160.691 C 292.893 160.693,292.554 160.744,293.049 160.806 M360.872 172.658 L 359.366 174.242 360.950 172.737 C 362.422 171.338,362.661 171.074,362.456 171.074 C 362.413 171.074,361.700 171.787,360.872 172.658 M357.291 176.240 L 355.785 177.824 357.369 176.318 C 358.841 174.919,359.079 174.656,358.875 174.656 C 358.832 174.656,358.119 175.368,357.291 176.240 M17.189 184.986 C 17.189 187.107,17.232 187.939,17.285 186.834 C 17.337 185.729,17.337 183.993,17.284 182.977 C 17.231 181.961,17.188 182.865,17.189 184.986 M35.921 185.675 C 35.921 187.720,35.964 188.557,36.017 187.534 C 36.070 186.512,36.070 184.838,36.017 183.815 C 35.964 182.793,35.921 183.629,35.921 185.675 M291.529 184.487 C 291.794 184.557,292.228 184.557,292.493 184.487 C 292.758 184.418,292.541 184.361,292.011 184.361 C 291.481 184.361,291.264 184.418,291.529 184.487 M279.286 184.779 C 281.151 184.827,284.126 184.826,285.897 184.779 C 287.669 184.731,286.143 184.692,282.507 184.692 C 278.871 184.692,277.421 184.731,279.286 184.779 M270.784 187.534 L 269.835 188.567 270.868 187.618 C 271.829 186.734,272.027 186.501,271.817 186.501 C 271.771 186.501,271.306 186.966,270.784 187.534 M268.146 196.143 C 268.146 197.734,268.192 198.385,268.247 197.590 C 268.303 196.794,268.303 195.492,268.247 194.697 C 268.192 193.902,268.146 194.552,268.146 196.143 M17.467 203.994 C 17.467 206.419,17.509 207.374,17.561 206.116 C 17.612 204.859,17.611 202.876,17.560 201.709 C 17.508 200.542,17.467 201.570,17.467 203.994 M36.199 204.132 C 36.199 206.481,36.241 207.441,36.293 206.267 C 36.345 205.093,36.345 203.171,36.293 201.997 C 36.241 200.823,36.199 201.784,36.199 204.132 M267.833 201.928 C 267.833 202.459,267.889 202.676,267.958 202.410 C 268.028 202.145,268.028 201.711,267.958 201.446 C 267.889 201.181,267.833 201.398,267.833 201.928 M292.221 203.225 C 292.564 203.291,293.059 203.289,293.323 203.220 C 293.586 203.151,293.306 203.097,292.700 203.100 C 292.094 203.103,291.878 203.159,292.221 203.225 M287.534 203.500 C 287.875 203.566,288.433 203.566,288.774 203.500 C 289.115 203.435,288.836 203.381,288.154 203.381 C 287.472 203.381,287.194 203.435,287.534 203.500 M17.719 214.325 C 17.719 215.310,17.769 215.713,17.830 215.220 C 17.891 214.728,17.891 213.922,17.830 213.430 C 17.769 212.937,17.719 213.340,17.719 214.325 M36.439 213.774 C 36.439 214.456,36.492 214.735,36.558 214.394 C 36.624 214.053,36.624 213.495,36.558 213.154 C 36.492 212.813,36.439 213.092,36.439 213.774 M255.923 230.441 C 255.254 231.123,254.768 231.680,254.844 231.680 C 254.920 231.680,255.529 231.123,256.198 230.441 C 256.868 229.759,257.353 229.201,257.277 229.201 C 257.201 229.201,256.592 229.759,255.923 230.441 M248.967 235.280 C 248.399 235.580,247.934 235.887,247.934 235.963 C 247.934 236.038,248.430 235.846,249.036 235.537 C 249.642 235.228,250.138 234.916,250.138 234.843 C 250.138 234.663,250.136 234.663,248.967 235.280 M223.209 239.049 C 225.293 239.096,228.702 239.096,230.785 239.049 C 232.868 239.002,231.164 238.964,226.997 238.964 C 222.831 238.964,221.126 239.002,223.209 239.049 M190.014 239.325 C 193.537 239.368,199.301 239.368,202.824 239.325 C 206.346 239.281,203.464 239.246,196.419 239.246 C 189.373 239.246,186.491 239.281,190.014 239.325 M83.148 239.601 C 94.410 239.640,112.757 239.640,123.920 239.601 C 135.082 239.561,125.868 239.528,103.444 239.528 C 81.019 239.528,71.886 239.561,83.148 239.601 M271.746 241.391 L 270.937 242.287 271.832 241.477 C 272.324 241.032,272.727 240.629,272.727 240.582 C 272.727 240.369,272.500 240.557,271.746 241.391 M28.099 242.235 C 28.099 242.282,28.502 242.685,28.994 243.130 L 29.890 243.939 29.081 243.044 C 28.326 242.210,28.099 242.022,28.099 242.235 M268.440 244.697 L 267.631 245.592 268.526 244.783 C 269.361 244.029,269.548 243.802,269.335 243.802 C 269.288 243.802,268.885 244.205,268.440 244.697 M31.405 245.592 C 31.919 246.123,32.401 246.556,32.477 246.556 C 32.553 246.556,32.194 246.123,31.680 245.592 C 31.166 245.062,30.684 244.628,30.608 244.628 C 30.532 244.628,30.891 245.062,31.405 245.592 M240.289 257.490 C 240.554 257.559,240.988 257.559,241.253 257.490 C 241.519 257.421,241.302 257.364,240.771 257.364 C 240.241 257.364,240.024 257.421,240.289 257.490 M222.813 257.782 C 224.981 257.828,228.452 257.828,230.526 257.782 C 232.600 257.735,230.826 257.697,226.584 257.697 C 222.342 257.697,220.645 257.735,222.813 257.782 M189.344 258.058 C 192.953 258.101,198.779 258.101,202.292 258.058 C 205.804 258.014,202.851 257.978,195.730 257.978 C 188.609 257.978,185.735 258.014,189.344 258.058 M81.887 258.333 C 92.910 258.373,110.947 258.373,121.970 258.333 C 132.992 258.293,123.974 258.261,101.928 258.261 C 79.883 258.261,70.864 258.293,81.887 258.333 " stroke="none" fill="#848484" fill-rule="evenodd"></path><path id="path4" d="M101.033 17.011 C 136.829 17.050,195.403 17.050,231.198 17.011 C 266.994 16.973,237.707 16.941,166.116 16.941 C 94.525 16.941,65.238 16.973,101.033 17.011 M297.732 17.280 C 298.227 17.341,298.971 17.340,299.385 17.277 C 299.799 17.214,299.394 17.164,298.485 17.165 C 297.576 17.167,297.237 17.218,297.732 17.280 M300.758 17.550 C 301.098 17.615,301.656 17.615,301.997 17.550 C 302.338 17.484,302.059 17.430,301.377 17.430 C 300.696 17.430,300.417 17.484,300.758 17.550 M303.375 17.821 C 303.640 17.890,304.074 17.890,304.339 17.821 C 304.604 17.751,304.387 17.695,303.857 17.695 C 303.326 17.695,303.110 17.751,303.375 17.821 M305.303 18.096 C 305.568 18.166,306.002 18.166,306.267 18.096 C 306.532 18.027,306.315 17.970,305.785 17.970 C 305.255 17.970,305.038 18.027,305.303 18.096 M311.846 19.284 C 312.225 19.405,312.782 19.504,313.085 19.504 C 313.522 19.504,313.493 19.458,312.948 19.284 C 312.569 19.162,312.011 19.063,311.708 19.063 C 311.272 19.063,311.300 19.109,311.846 19.284 M27.893 19.832 C 27.400 20.132,26.997 20.437,26.997 20.510 C 26.997 20.583,27.431 20.387,27.961 20.074 C 28.492 19.761,28.926 19.455,28.926 19.394 C 28.926 19.218,28.839 19.255,27.893 19.832 M24.743 22.295 C 22.970 23.920,20.716 26.909,19.596 29.121 C 18.662 30.964,18.927 30.890,19.932 29.027 C 21.374 26.350,23.265 23.870,25.133 22.204 C 26.083 21.357,26.784 20.663,26.693 20.662 C 26.601 20.662,25.724 21.396,24.743 22.295 M318.320 20.937 C 318.623 21.067,319.056 21.173,319.284 21.173 C 319.544 21.173,319.493 21.086,319.146 20.937 C 318.843 20.806,318.409 20.700,318.182 20.700 C 317.921 20.700,317.972 20.787,318.320 20.937 M322.018 22.057 C 323.295 22.498,324.388 22.812,324.446 22.753 C 324.571 22.628,320.375 21.202,319.972 21.233 C 319.821 21.244,320.742 21.615,322.018 22.057 M325.069 23.094 C 325.296 23.234,325.792 23.432,326.171 23.534 C 326.649 23.662,326.733 23.640,326.446 23.462 C 326.219 23.322,325.723 23.124,325.344 23.023 C 324.866 22.895,324.782 22.917,325.069 23.094 M328.926 24.656 C 329.304 24.872,329.738 25.049,329.890 25.049 C 330.041 25.049,329.855 24.872,329.477 24.656 C 329.098 24.439,328.664 24.262,328.512 24.262 C 328.361 24.262,328.547 24.439,328.926 24.656 M331.680 25.895 C 332.514 26.336,333.320 26.696,333.471 26.696 C 333.623 26.696,333.065 26.336,332.231 25.895 C 331.398 25.455,330.592 25.095,330.441 25.095 C 330.289 25.095,330.847 25.455,331.680 25.895 M335.675 27.738 C 336.053 28.114,340.427 30.440,340.083 30.081 C 339.931 29.923,338.815 29.270,337.603 28.629 C 336.391 27.988,335.523 27.587,335.675 27.738 M340.516 30.390 C 340.603 30.491,342.339 31.667,344.373 33.004 C 346.407 34.342,349.171 36.276,350.515 37.304 C 351.859 38.332,352.878 39.042,352.780 38.883 C 352.523 38.468,347.950 35.082,345.041 33.154 C 342.373 31.384,340.261 30.095,340.516 30.390 M18.064 32.940 C 17.962 33.344,17.933 33.727,17.998 33.792 C 18.063 33.857,18.199 33.580,18.300 33.176 C 18.401 32.772,18.431 32.389,18.366 32.324 C 18.301 32.259,18.165 32.536,18.064 32.940 M36.969 36.170 C 36.484 36.670,36.088 37.170,36.088 37.282 C 36.088 37.393,36.473 37.047,36.943 36.511 L 37.798 35.538 167.453 35.468 L 297.107 35.399 167.478 35.330 L 37.849 35.262 36.969 36.170 M298.003 35.732 C 298.344 35.797,298.902 35.797,299.242 35.732 C 299.583 35.666,299.304 35.612,298.623 35.612 C 297.941 35.612,297.662 35.666,298.003 35.732 M300.620 36.003 C 300.885 36.072,301.319 36.072,301.584 36.003 C 301.849 35.933,301.632 35.877,301.102 35.877 C 300.572 35.877,300.355 35.933,300.620 36.003 M17.204 46.143 C 17.204 51.295,17.241 53.363,17.286 50.740 C 17.331 48.117,17.331 43.902,17.286 41.374 C 17.241 38.845,17.203 40.992,17.204 46.143 M307.713 37.190 C 308.092 37.311,308.650 37.411,308.953 37.411 C 309.389 37.411,309.361 37.365,308.815 37.190 C 308.437 37.069,307.879 36.970,307.576 36.970 C 307.139 36.970,307.168 37.015,307.713 37.190 M312.259 38.292 C 312.562 38.422,312.996 38.529,313.223 38.529 C 313.484 38.529,313.433 38.441,313.085 38.292 C 312.782 38.162,312.348 38.055,312.121 38.055 C 311.861 38.055,311.912 38.143,312.259 38.292 M315.129 39.138 C 315.951 39.429,316.670 39.620,316.728 39.562 C 316.857 39.433,314.348 38.559,313.932 38.588 C 313.769 38.599,314.308 38.846,315.129 39.138 M357.889 43.802 C 364.239 50.141,368.510 55.635,371.924 61.855 C 372.545 62.986,373.115 63.912,373.191 63.912 C 373.637 63.912,368.866 56.227,366.436 53.030 C 363.199 48.773,357.825 43.034,354.147 39.905 C 353.549 39.397,355.232 41.150,357.889 43.802 M319.806 40.797 C 320.472 41.092,321.066 41.285,321.126 41.225 C 321.245 41.106,319.122 40.208,318.796 40.240 C 318.686 40.251,319.140 40.501,319.806 40.797 M322.039 41.736 C 322.417 41.952,322.851 42.129,323.003 42.129 C 323.154 42.129,322.968 41.952,322.590 41.736 C 322.211 41.519,321.777 41.342,321.625 41.342 C 321.474 41.342,321.660 41.519,322.039 41.736 M326.584 43.881 C 328.402 44.827,330.386 45.889,330.992 46.243 C 331.897 46.772,331.971 46.786,331.405 46.324 C 330.648 45.705,323.914 42.145,323.522 42.156 C 323.388 42.160,324.766 42.936,326.584 43.881 M332.369 47.030 C 332.802 47.469,337.741 50.719,337.741 50.565 C 337.741 50.489,336.656 49.703,335.331 48.817 C 332.648 47.024,331.944 46.599,332.369 47.030 M338.154 50.882 C 338.306 51.047,339.408 51.955,340.603 52.898 C 344.940 56.320,349.096 60.698,352.377 65.298 C 354.999 68.974,354.921 68.875,354.351 67.814 C 352.587 64.536,346.479 57.538,342.362 54.078 C 340.126 52.200,337.611 50.289,338.154 50.882 M35.397 103.168 C 35.397 130.744,35.429 141.984,35.468 128.146 C 35.508 114.308,35.508 91.746,35.468 78.008 C 35.429 64.270,35.397 75.592,35.397 103.168 M282.438 59.435 C 285.279 59.480,289.928 59.480,292.769 59.435 C 295.610 59.390,293.285 59.353,287.603 59.353 C 281.921 59.353,279.597 59.390,282.438 59.435 M274.725 60.048 C 274.081 60.340,273.554 60.652,273.554 60.740 C 273.554 60.829,273.833 60.751,274.174 60.568 C 274.514 60.384,275.289 60.078,275.895 59.888 C 276.501 59.697,276.749 59.535,276.446 59.529 C 276.143 59.522,275.368 59.755,274.725 60.048 M299.659 59.699 C 300.002 59.765,300.497 59.762,300.761 59.693 C 301.024 59.624,300.744 59.571,300.138 59.574 C 299.532 59.577,299.316 59.633,299.659 59.699 M271.922 61.963 C 271.327 62.557,270.697 63.332,270.522 63.684 C 270.336 64.057,270.529 63.922,270.982 63.361 C 271.410 62.831,272.129 62.056,272.581 61.639 C 273.032 61.222,273.311 60.882,273.202 60.882 C 273.092 60.882,272.516 61.368,271.922 61.963 M315.174 63.740 C 315.456 63.995,317.631 65.011,317.631 64.887 C 317.631 64.731,315.552 63.636,315.254 63.636 C 315.147 63.636,315.111 63.683,315.174 63.740 M374.162 65.969 C 374.645 66.949,375.086 67.705,375.142 67.650 C 375.265 67.527,373.599 64.187,373.415 64.187 C 373.342 64.187,373.679 64.989,374.162 65.969 M318.044 65.214 C 318.196 65.358,318.815 65.755,319.421 66.095 C 320.028 66.436,320.275 66.508,319.972 66.256 C 319.357 65.745,317.612 64.801,318.044 65.214 M320.661 66.748 C 320.661 66.803,321.250 67.252,321.970 67.744 C 322.960 68.421,323.077 68.463,322.452 67.915 C 321.620 67.186,320.661 66.561,320.661 66.748 M269.280 110.055 C 269.280 133.843,269.313 143.534,269.353 131.590 C 269.392 119.646,269.392 100.183,269.353 88.339 C 269.313 76.495,269.280 86.267,269.280 110.055 M323.416 68.667 C 323.416 68.729,324.419 69.635,325.644 70.682 C 328.162 72.832,331.920 77.086,333.804 79.918 C 334.499 80.963,335.118 81.818,335.181 81.818 C 336.000 81.818,329.045 73.314,326.282 70.937 C 324.232 69.173,323.416 68.527,323.416 68.667 M375.505 68.733 C 375.505 68.884,375.743 69.442,376.033 69.972 C 376.323 70.503,376.561 70.813,376.561 70.661 C 376.561 70.510,376.323 69.952,376.033 69.421 C 375.743 68.891,375.505 68.581,375.505 68.733 M355.538 70.110 C 355.951 70.868,356.406 71.612,356.549 71.763 C 356.958 72.195,355.744 69.900,355.238 69.284 C 354.990 68.981,355.124 69.353,355.538 70.110 M357.495 73.684 C 357.901 74.513,358.280 75.145,358.337 75.089 C 358.460 74.965,357.071 72.176,356.885 72.176 C 356.814 72.176,357.088 72.855,357.495 73.684 M378.642 76.538 C 379.181 78.290,380.127 80.819,380.145 80.558 C 380.171 80.177,378.845 76.271,378.617 76.057 C 378.522 75.968,378.533 76.185,378.642 76.538 M358.973 76.722 C 358.973 76.873,359.150 77.307,359.366 77.686 C 359.583 78.065,359.760 78.251,359.760 78.099 C 359.760 77.948,359.583 77.514,359.366 77.135 C 359.150 76.756,358.973 76.570,358.973 76.722 M287.783 77.893 C 287.712 78.006,289.286 78.067,291.279 78.028 C 297.869 77.898,298.556 77.795,293.198 77.740 C 290.290 77.710,287.854 77.779,287.783 77.893 M298.921 78.064 C 298.984 78.120,299.656 78.238,300.413 78.325 C 301.342 78.433,301.566 78.408,301.102 78.250 C 300.414 78.017,298.704 77.870,298.921 78.064 M304.386 79.358 C 305.207 79.650,305.926 79.840,305.985 79.782 C 306.113 79.654,303.604 78.780,303.188 78.808 C 303.025 78.819,303.564 79.067,304.386 79.358 M16.937 105.096 C 16.937 119.339,16.970 125.125,17.011 117.954 C 17.052 110.784,17.052 99.131,17.011 92.059 C 16.970 84.987,16.937 90.854,16.937 105.096 M308.127 80.933 C 313.388 83.740,317.362 87.714,320.169 92.975 C 321.340 95.170,321.589 95.217,320.485 93.035 C 317.973 88.068,313.013 83.107,308.067 80.614 C 305.886 79.515,305.933 79.763,308.127 80.933 M380.204 81.267 C 380.204 81.494,380.311 81.928,380.441 82.231 C 380.590 82.579,380.678 82.630,380.678 82.369 C 380.678 82.142,380.571 81.708,380.441 81.405 C 380.292 81.058,380.204 81.007,380.204 81.267 M361.041 81.887 C 361.570 83.554,362.221 85.230,362.239 84.971 C 362.266 84.573,361.139 81.267,360.975 81.267 C 360.903 81.267,360.933 81.546,361.041 81.887 M335.675 82.920 C 335.910 83.375,336.164 83.747,336.240 83.747 C 336.316 83.747,336.185 83.375,335.950 82.920 C 335.715 82.466,335.461 82.094,335.385 82.094 C 335.310 82.094,335.440 82.466,335.675 82.920 M380.755 83.196 C 380.755 83.423,380.862 83.857,380.992 84.160 C 381.141 84.507,381.228 84.558,381.228 84.298 C 381.228 84.070,381.122 83.636,380.992 83.333 C 380.843 82.986,380.755 82.935,380.755 83.196 M337.213 85.813 C 337.213 85.964,337.451 86.522,337.741 87.052 C 338.031 87.583,338.269 87.893,338.269 87.741 C 338.269 87.590,338.031 87.032,337.741 86.501 C 337.451 85.971,337.213 85.661,337.213 85.813 M362.849 87.328 C 362.849 87.555,362.955 87.989,363.085 88.292 C 363.235 88.639,363.322 88.690,363.322 88.430 C 363.322 88.202,363.216 87.769,363.085 87.466 C 362.936 87.118,362.849 87.067,362.849 87.328 M338.450 88.705 C 338.551 89.084,338.749 89.580,338.889 89.807 C 339.067 90.094,339.089 90.010,338.961 89.532 C 338.859 89.153,338.661 88.657,338.521 88.430 C 338.344 88.143,338.322 88.227,338.450 88.705 M339.433 91.460 C 339.433 91.687,339.539 92.121,339.669 92.424 C 339.819 92.772,339.906 92.822,339.906 92.562 C 339.906 92.335,339.800 91.901,339.669 91.598 C 339.520 91.251,339.433 91.200,339.433 91.460 M321.802 96.694 C 321.802 96.921,321.908 97.355,322.039 97.658 C 322.188 98.006,322.275 98.057,322.275 97.796 C 322.275 97.569,322.169 97.135,322.039 96.832 C 321.889 96.485,321.802 96.434,321.802 96.694 M383.810 98.347 C 383.810 98.877,383.867 99.094,383.936 98.829 C 384.006 98.564,384.006 98.130,383.936 97.865 C 383.867 97.600,383.810 97.817,383.810 98.347 M341.111 98.898 C 341.111 99.428,341.167 99.645,341.237 99.380 C 341.306 99.115,341.306 98.681,341.237 98.416 C 341.167 98.151,341.111 98.368,341.111 98.898 M384.097 100.826 C 384.097 101.508,384.151 101.787,384.216 101.446 C 384.282 101.105,384.282 100.548,384.216 100.207 C 384.151 99.866,384.097 100.145,384.097 100.826 M341.392 100.964 C 341.395 101.570,341.451 101.786,341.517 101.443 C 341.583 101.100,341.581 100.605,341.512 100.341 C 341.443 100.078,341.389 100.358,341.392 100.964 M365.629 101.102 C 365.629 101.632,365.685 101.849,365.755 101.584 C 365.824 101.319,365.824 100.885,365.755 100.620 C 365.685 100.355,365.629 100.572,365.629 101.102 M384.386 103.857 C 384.386 104.842,384.436 105.244,384.497 104.752 C 384.558 104.260,384.558 103.454,384.497 102.961 C 384.436 102.469,384.386 102.872,384.386 103.857 M323.226 103.994 C 323.227 104.904,323.279 105.242,323.340 104.747 C 323.401 104.252,323.400 103.508,323.337 103.094 C 323.274 102.680,323.224 103.085,323.226 103.994 M341.714 107.851 C 341.713 110.882,341.754 112.159,341.803 110.690 C 341.852 109.220,341.853 106.741,341.803 105.180 C 341.754 103.619,341.714 104.821,341.714 107.851 M365.919 103.719 C 365.921 104.477,365.975 104.754,366.038 104.335 C 366.101 103.916,366.100 103.296,366.034 102.958 C 365.969 102.619,365.917 102.961,365.919 103.719 M366.232 111.295 C 366.232 114.401,366.272 115.671,366.321 114.118 C 366.370 112.565,366.370 110.024,366.321 108.471 C 366.272 106.918,366.232 108.189,366.232 111.295 M323.504 107.713 C 323.504 108.698,323.554 109.101,323.615 108.609 C 323.676 108.116,323.676 107.311,323.615 106.818 C 323.554 106.326,323.504 106.729,323.504 107.713 M384.688 111.295 C 384.688 114.249,384.729 115.458,384.778 113.981 C 384.828 112.503,384.828 110.086,384.778 108.609 C 384.729 107.132,384.688 108.340,384.688 111.295 M323.233 111.846 C 323.233 112.982,323.282 113.447,323.341 112.879 C 323.401 112.311,323.401 111.381,323.341 110.813 C 323.282 110.244,323.233 110.709,323.233 111.846 M341.401 115.014 C 341.403 115.771,341.457 116.049,341.520 115.630 C 341.583 115.211,341.582 114.591,341.516 114.252 C 341.451 113.914,341.399 114.256,341.401 115.014 M322.929 114.876 C 322.929 115.406,322.986 115.623,323.055 115.358 C 323.124 115.093,323.124 114.659,323.055 114.394 C 322.986 114.129,322.929 114.346,322.929 114.876 M341.116 117.493 C 341.119 118.099,341.176 118.315,341.242 117.972 C 341.308 117.629,341.305 117.133,341.236 116.870 C 341.167 116.607,341.113 116.887,341.116 117.493 M384.386 118.733 C 384.386 119.718,384.436 120.121,384.497 119.628 C 384.558 119.136,384.558 118.330,384.497 117.837 C 384.436 117.345,384.386 117.748,384.386 118.733 M365.915 118.733 C 365.915 119.415,365.969 119.694,366.035 119.353 C 366.100 119.012,366.100 118.454,366.035 118.113 C 365.969 117.772,365.915 118.051,365.915 118.733 M321.645 121.094 C 321.544 121.498,321.514 121.881,321.579 121.946 C 321.644 122.011,321.780 121.734,321.881 121.330 C 321.982 120.926,322.012 120.543,321.947 120.478 C 321.882 120.413,321.746 120.690,321.645 121.094 M365.629 121.212 C 365.629 121.742,365.685 121.959,365.755 121.694 C 365.824 121.429,365.824 120.995,365.755 120.730 C 365.685 120.465,365.629 120.682,365.629 121.212 M384.092 121.901 C 384.095 122.507,384.151 122.722,384.217 122.380 C 384.283 122.037,384.280 121.541,384.211 121.278 C 384.142 121.014,384.088 121.295,384.092 121.901 M339.712 124.560 C 339.532 125.340,339.435 126.028,339.496 126.089 C 339.557 126.150,339.759 125.567,339.945 124.793 C 340.131 124.019,340.228 123.331,340.161 123.265 C 340.094 123.198,339.892 123.781,339.712 124.560 M383.810 124.242 C 383.810 124.773,383.867 124.990,383.936 124.725 C 384.006 124.459,384.006 124.025,383.936 123.760 C 383.867 123.495,383.810 123.712,383.810 124.242 M320.038 125.619 C 319.646 126.529,319.385 127.273,319.457 127.273 C 319.641 127.273,320.984 124.198,320.856 124.070 C 320.799 124.013,320.431 124.710,320.038 125.619 M364.628 126.749 C 364.527 127.381,364.498 127.951,364.564 128.017 C 364.630 128.083,364.770 127.624,364.876 126.997 C 364.982 126.371,365.011 125.800,364.940 125.730 C 364.869 125.659,364.729 126.118,364.628 126.749 M338.261 129.280 C 337.713 130.828,337.179 132.342,337.073 132.645 C 336.954 132.982,337.035 132.928,337.280 132.507 C 337.796 131.621,339.434 126.977,339.333 126.687 C 339.291 126.566,338.808 127.733,338.261 129.280 M317.760 129.643 C 316.119 132.154,313.095 135.100,310.346 136.865 C 307.372 138.775,307.211 138.893,308.264 138.394 C 311.983 136.632,317.144 131.706,318.981 128.168 C 319.593 126.989,319.124 127.556,317.760 129.643 M363.518 131.287 C 363.417 131.691,363.387 132.074,363.452 132.139 C 363.517 132.204,363.653 131.927,363.754 131.523 C 363.856 131.119,363.886 130.736,363.821 130.671 C 363.756 130.606,363.620 130.883,363.518 131.287 M382.247 132.384 C 382.143 132.937,382.113 133.445,382.181 133.512 C 382.248 133.579,382.388 133.182,382.492 132.629 C 382.595 132.076,382.625 131.569,382.558 131.502 C 382.490 131.434,382.350 131.832,382.247 132.384 M362.731 133.943 C 362.480 134.728,362.321 135.415,362.377 135.471 C 362.433 135.527,362.690 134.937,362.948 134.160 C 363.206 133.383,363.365 132.695,363.302 132.632 C 363.239 132.569,362.982 133.159,362.731 133.943 M336.004 134.852 C 335.752 135.380,335.603 135.813,335.672 135.813 C 335.861 135.813,336.697 134.126,336.571 134.000 C 336.511 133.940,336.256 134.324,336.004 134.852 M381.425 135.695 C 381.323 136.098,381.294 136.482,381.358 136.547 C 381.423 136.612,381.559 136.334,381.661 135.931 C 381.762 135.527,381.792 135.144,381.727 135.079 C 381.662 135.014,381.526 135.291,381.425 135.695 M334.678 137.259 C 334.497 137.600,334.170 138.189,333.950 138.567 C 333.567 139.228,333.570 139.234,334.014 138.705 C 334.563 138.052,335.334 136.639,335.141 136.639 C 335.066 136.639,334.858 136.918,334.678 137.259 M380.741 138.042 C 380.555 138.663,380.453 139.223,380.515 139.285 C 380.577 139.347,380.780 138.889,380.967 138.267 C 381.153 137.645,381.255 137.086,381.193 137.024 C 381.131 136.962,380.928 137.420,380.741 138.042 M360.651 139.543 C 360.189 140.557,360.277 140.773,360.776 139.852 C 361.009 139.422,361.149 139.018,361.086 138.955 C 361.023 138.892,360.827 139.157,360.651 139.543 M304.408 140.083 C 304.029 140.299,303.843 140.476,303.994 140.476 C 304.146 140.476,304.580 140.299,304.959 140.083 C 305.337 139.866,305.523 139.689,305.372 139.689 C 305.220 139.689,304.787 139.866,304.408 140.083 M358.335 144.447 C 357.313 146.440,356.667 147.824,356.900 147.522 C 357.444 146.814,360.406 141.030,360.285 140.911 C 360.234 140.862,359.357 142.453,358.335 144.447 M331.037 142.631 C 328.297 146.168,322.495 151.212,318.610 153.435 C 317.768 153.916,317.080 154.370,317.080 154.444 C 317.080 155.205,324.957 149.423,327.818 146.562 C 329.725 144.654,332.724 141.047,332.401 141.047 C 332.326 141.047,331.711 141.760,331.037 142.631 M299.108 141.793 C 299.451 141.859,299.946 141.856,300.210 141.787 C 300.473 141.718,300.193 141.664,299.587 141.667 C 298.981 141.670,298.765 141.727,299.108 141.793 M287.603 142.218 C 287.603 142.331,288.936 142.403,290.565 142.378 C 293.573 142.331,293.214 142.222,289.600 142.086 C 288.501 142.045,287.602 142.104,287.603 142.218 M295.386 142.071 C 295.802 142.134,296.484 142.134,296.901 142.071 C 297.317 142.007,296.977 141.956,296.143 141.956 C 295.310 141.956,294.969 142.007,295.386 142.071 M379.094 143.006 C 378.924 143.493,378.834 143.939,378.893 143.998 C 378.951 144.057,379.139 143.707,379.308 143.220 C 379.478 142.733,379.569 142.287,379.510 142.228 C 379.451 142.169,379.264 142.519,379.094 143.006 M376.911 148.361 C 376.082 150.069,376.174 150.308,377.029 148.665 C 377.411 147.930,377.677 147.282,377.619 147.224 C 377.562 147.167,377.243 147.678,376.911 148.361 M356.028 148.554 C 355.080 150.163,355.018 150.300,355.501 149.725 C 356.060 149.058,356.543 148.209,356.362 148.209 C 356.290 148.209,356.140 148.364,356.028 148.554 M375.401 151.661 C 374.994 152.490,374.720 153.168,374.792 153.168 C 374.977 153.168,376.367 150.380,376.243 150.256 C 376.186 150.199,375.808 150.831,375.401 151.661 M352.975 153.099 C 347.558 160.533,340.153 167.249,332.071 172.058 C 328.790 174.010,327.766 174.806,330.510 173.271 C 339.567 168.205,350.857 157.797,354.930 150.758 C 355.503 149.767,354.719 150.706,352.975 153.099 M17.208 166.253 C 17.208 174.587,17.243 178.036,17.286 173.918 C 17.329 169.800,17.329 162.981,17.286 158.766 C 17.244 154.551,17.209 157.920,17.208 166.253 M373.938 154.339 C 373.687 154.831,373.168 155.792,372.784 156.474 C 372.400 157.156,372.219 157.590,372.381 157.438 C 372.780 157.067,374.747 153.444,374.550 153.444 C 374.464 153.444,374.189 153.846,373.938 154.339 M314.876 155.510 C 313.891 156.025,313.182 156.453,313.300 156.460 C 313.593 156.479,316.804 154.846,316.804 154.679 C 316.804 154.494,316.869 154.466,314.876 155.510 M269.972 155.257 C 269.972 156.360,273.899 160.065,275.054 160.052 C 275.214 160.050,274.787 159.731,274.105 159.343 C 272.483 158.419,271.719 157.704,270.760 156.213 C 270.327 155.540,269.972 155.109,269.972 155.257 M311.570 157.025 C 311.040 157.315,310.730 157.553,310.882 157.553 C 311.033 157.553,311.591 157.315,312.121 157.025 C 312.652 156.734,312.961 156.497,312.810 156.497 C 312.658 156.497,312.101 156.734,311.570 157.025 M309.229 157.999 C 308.540 158.330,308.517 158.369,309.091 158.228 C 309.871 158.038,310.749 157.590,310.331 157.597 C 310.179 157.599,309.683 157.780,309.229 157.999 M371.519 158.540 C 371.275 158.919,370.874 159.570,370.628 159.986 L 370.183 160.744 370.737 160.073 C 371.391 159.281,372.260 157.851,372.086 157.851 C 372.019 157.851,371.764 158.161,371.519 158.540 M305.923 159.105 C 304.862 159.461,304.187 159.758,304.423 159.766 C 304.907 159.781,308.264 158.688,308.264 158.515 C 308.264 158.341,307.996 158.409,305.923 159.105 M302.138 159.974 C 302.481 160.040,302.977 160.038,303.240 159.969 C 303.504 159.900,303.223 159.846,302.617 159.849 C 302.011 159.852,301.796 159.909,302.138 159.974 M275.895 160.333 C 276.423 160.558,278.727 160.712,278.489 160.507 C 278.426 160.452,277.693 160.338,276.860 160.253 C 275.917 160.157,275.552 160.188,275.895 160.333 M298.691 160.252 C 299.108 160.316,299.790 160.316,300.207 160.252 C 300.623 160.189,300.282 160.138,299.449 160.138 C 298.616 160.138,298.275 160.189,298.691 160.252 M294.559 160.531 C 295.127 160.591,296.057 160.591,296.625 160.531 C 297.194 160.472,296.729 160.423,295.592 160.423 C 294.456 160.423,293.991 160.472,294.559 160.531 M282.713 160.812 C 284.494 160.860,287.407 160.860,289.187 160.812 C 290.968 160.764,289.511 160.725,285.950 160.725 C 282.390 160.725,280.933 160.764,282.713 160.812 M367.826 163.981 C 361.858 172.155,353.760 179.884,345.248 185.532 C 344.149 186.261,343.251 186.909,343.251 186.971 C 343.251 187.252,346.681 184.905,350.418 182.069 C 356.892 177.155,364.564 169.207,368.858 162.966 C 370.308 160.858,369.591 161.563,367.826 163.981 M35.660 173.829 C 35.660 178.753,35.698 180.768,35.743 178.306 C 35.789 175.844,35.789 171.815,35.743 169.353 C 35.698 166.890,35.660 168.905,35.660 173.829 M326.722 175.069 C 325.737 175.584,325.028 176.012,325.146 176.020 C 325.438 176.038,328.650 174.406,328.650 174.238 C 328.650 174.053,328.715 174.025,326.722 175.069 M321.625 177.410 C 320.716 177.842,320.096 178.198,320.248 178.202 C 320.399 178.206,321.267 177.855,322.176 177.421 C 323.085 176.986,323.705 176.630,323.554 176.629 C 323.402 176.627,322.534 176.979,321.625 177.410 M318.595 178.660 C 317.906 178.992,317.883 179.030,318.457 178.890 C 319.238 178.699,320.115 178.252,319.697 178.258 C 319.545 178.260,319.050 178.441,318.595 178.660 M315.014 179.890 C 313.802 180.321,312.943 180.683,313.106 180.695 C 313.448 180.720,317.376 179.410,317.584 179.202 C 317.847 178.939,317.210 179.109,315.014 179.890 M309.504 181.543 C 309.157 181.692,309.106 181.779,309.366 181.779 C 309.594 181.779,310.028 181.673,310.331 181.543 C 310.678 181.393,310.729 181.306,310.468 181.306 C 310.241 181.306,309.807 181.412,309.504 181.543 M17.478 190.909 C 17.478 195.833,17.516 197.848,17.561 195.386 C 17.607 192.924,17.607 188.895,17.561 186.433 C 17.516 183.970,17.478 185.985,17.478 190.909 M298.623 183.747 C 297.693 183.942,297.688 183.950,298.485 183.953 C 298.939 183.955,299.683 183.862,300.138 183.747 C 301.281 183.456,300.005 183.456,298.623 183.747 M296.078 184.217 C 296.420 184.283,296.916 184.280,297.180 184.211 C 297.443 184.142,297.163 184.088,296.556 184.092 C 295.950 184.095,295.735 184.151,296.078 184.217 M293.320 184.492 C 293.660 184.558,294.218 184.558,294.559 184.492 C 294.900 184.426,294.621 184.373,293.939 184.373 C 293.258 184.373,292.979 184.426,293.320 184.492 M289.738 184.772 C 290.231 184.833,291.037 184.833,291.529 184.772 C 292.021 184.711,291.618 184.661,290.634 184.661 C 289.649 184.661,289.246 184.711,289.738 184.772 M281.198 185.053 C 282.297 185.105,284.094 185.105,285.193 185.053 C 286.291 185.001,285.393 184.958,283.196 184.958 C 280.999 184.958,280.100 185.001,281.198 185.053 M273.485 185.694 C 272.917 185.994,272.452 186.301,272.452 186.376 C 272.452 186.451,272.917 186.279,273.485 185.994 C 274.053 185.709,274.704 185.407,274.931 185.322 C 275.298 185.185,275.298 185.166,274.931 185.158 C 274.704 185.153,274.053 185.394,273.485 185.694 M270.813 187.757 C 269.669 188.999,268.599 190.935,268.615 191.736 C 268.620 191.963,268.871 191.504,269.174 190.717 C 269.477 189.929,270.288 188.659,270.976 187.893 C 271.664 187.128,272.170 186.501,272.099 186.501 C 272.029 186.501,271.450 187.067,270.813 187.757 M341.802 187.706 C 340.479 188.520,340.109 188.904,341.185 188.348 C 342.048 187.902,343.213 187.070,342.975 187.070 C 342.899 187.070,342.371 187.356,341.802 187.706 M339.325 189.138 C 338.295 189.697,338.358 189.930,339.394 189.394 C 339.848 189.159,340.220 188.908,340.220 188.836 C 340.220 188.659,340.191 188.669,339.325 189.138 M35.934 196.694 C 35.934 200.861,35.972 202.565,36.019 200.482 C 36.065 198.399,36.065 194.990,36.019 192.906 C 35.972 190.823,35.934 192.528,35.934 196.694 M334.435 191.736 C 332.390 192.780,330.811 193.642,330.927 193.650 C 331.219 193.670,338.292 190.110,338.292 189.943 C 338.292 189.754,338.538 189.640,334.435 191.736 M268.417 194.628 C 268.417 195.992,268.463 196.584,268.521 195.945 C 268.579 195.306,268.579 194.190,268.522 193.466 C 268.465 192.741,268.418 193.264,268.417 194.628 M329.477 194.077 C 329.098 194.294,328.912 194.471,329.063 194.471 C 329.215 194.471,329.649 194.294,330.028 194.077 C 330.406 193.861,330.592 193.683,330.441 193.683 C 330.289 193.683,329.855 193.861,329.477 194.077 M327.135 195.061 C 326.529 195.353,326.343 195.514,326.722 195.420 C 327.502 195.225,328.934 194.507,328.512 194.522 C 328.361 194.527,327.741 194.770,327.135 195.061 M322.090 196.882 C 321.437 197.113,320.951 197.351,321.010 197.411 C 321.136 197.537,323.691 196.698,323.691 196.531 C 323.691 196.358,323.378 196.427,322.090 196.882 M319.008 197.934 C 318.478 198.138,318.230 198.305,318.457 198.305 C 318.685 198.305,319.304 198.138,319.835 197.934 C 320.365 197.730,320.613 197.563,320.386 197.563 C 320.158 197.563,319.539 197.730,319.008 197.934 M315.840 198.898 C 315.493 199.047,315.442 199.135,315.702 199.135 C 315.930 199.135,316.364 199.028,316.667 198.898 C 317.014 198.749,317.065 198.661,316.804 198.661 C 316.577 198.661,316.143 198.768,315.840 198.898 M268.129 200.413 C 268.131 201.322,268.182 201.661,268.244 201.166 C 268.305 200.671,268.304 199.927,268.241 199.513 C 268.178 199.099,268.128 199.504,268.129 200.413 M302.548 201.843 C 302.813 201.912,303.247 201.912,303.512 201.843 C 303.778 201.773,303.561 201.717,303.030 201.717 C 302.500 201.717,302.283 201.773,302.548 201.843 M298.832 202.399 C 299.175 202.465,299.671 202.462,299.934 202.393 C 300.198 202.324,299.917 202.270,299.311 202.273 C 298.705 202.276,298.490 202.333,298.832 202.399 M296.488 202.669 C 296.753 202.739,297.187 202.739,297.452 202.669 C 297.717 202.600,297.500 202.543,296.970 202.543 C 296.439 202.543,296.222 202.600,296.488 202.669 M267.838 203.719 C 267.841 204.325,267.898 204.541,267.963 204.198 C 268.029 203.855,268.027 203.359,267.958 203.096 C 267.889 202.833,267.835 203.113,267.838 203.719 M293.461 202.953 C 293.880 203.016,294.500 203.014,294.838 202.949 C 295.177 202.883,294.835 202.832,294.077 202.834 C 293.320 202.836,293.042 202.889,293.461 202.953 M286.668 203.388 C 286.330 203.636,286.216 203.997,286.299 204.559 L 286.419 205.372 286.460 204.482 C 286.509 203.437,286.746 203.348,289.807 203.224 L 291.873 203.140 289.515 203.085 C 287.938 203.048,286.996 203.149,286.668 203.388 M17.744 208.127 C 17.743 210.702,17.785 211.793,17.836 210.551 C 17.887 209.308,17.887 207.201,17.836 205.868 C 17.786 204.534,17.744 205.551,17.744 208.127 M286.020 206.749 C 286.023 207.355,286.079 207.571,286.145 207.228 C 286.211 206.886,286.209 206.390,286.140 206.126 C 286.071 205.863,286.017 206.143,286.020 206.749 M266.977 208.988 C 266.792 209.990,266.694 210.863,266.758 210.927 C 266.822 210.991,267.029 210.227,267.218 209.229 C 267.406 208.230,267.504 207.357,267.436 207.289 C 267.368 207.221,267.161 207.985,266.977 208.988 M36.192 211.295 C 36.192 213.037,36.237 213.750,36.292 212.879 C 36.346 212.008,36.346 210.582,36.292 209.711 C 36.237 208.840,36.192 209.552,36.192 211.295 M284.726 214.203 C 284.622 214.755,284.593 215.263,284.660 215.330 C 284.727 215.398,284.867 215.000,284.971 214.448 C 285.075 213.895,285.104 213.387,285.037 213.320 C 284.970 213.253,284.830 213.650,284.726 214.203 M265.722 214.207 C 265.621 214.611,265.591 214.994,265.656 215.059 C 265.721 215.124,265.857 214.847,265.958 214.443 C 266.060 214.039,266.089 213.656,266.024 213.591 C 265.960 213.526,265.823 213.803,265.722 214.207 M17.981 215.978 C 17.981 216.660,18.035 216.939,18.101 216.598 C 18.166 216.257,18.166 215.699,18.101 215.358 C 18.035 215.017,17.981 215.296,17.981 215.978 M36.433 215.840 C 36.436 216.446,36.493 216.662,36.558 216.319 C 36.624 215.976,36.622 215.481,36.553 215.217 C 36.484 214.954,36.430 215.234,36.433 215.840 M264.769 217.110 C 264.599 217.597,264.509 218.044,264.567 218.103 C 264.626 218.162,264.813 217.812,264.983 217.325 C 265.153 216.838,265.244 216.391,265.185 216.332 C 265.126 216.274,264.939 216.624,264.769 217.110 M18.246 218.733 C 18.246 219.263,18.302 219.480,18.372 219.215 C 18.441 218.950,18.441 218.516,18.372 218.251 C 18.302 217.986,18.246 218.202,18.246 218.733 M36.929 218.830 C 36.805 223.156,43.091 232.290,48.064 235.009 C 49.463 235.774,49.073 235.406,47.072 234.071 C 42.638 231.114,39.333 226.395,37.606 220.557 C 37.242 219.326,36.937 218.549,36.929 218.830 M263.957 219.158 C 263.495 220.171,263.583 220.387,264.082 219.466 C 264.315 219.036,264.454 218.633,264.391 218.570 C 264.328 218.507,264.133 218.771,263.957 219.158 M282.708 221.689 C 282.226 223.152,281.878 224.394,281.934 224.450 C 281.991 224.507,282.434 223.359,282.920 221.901 C 283.406 220.442,283.754 219.200,283.694 219.139 C 283.634 219.079,283.190 220.226,282.708 221.689 M18.788 221.901 C 18.788 222.204,18.887 222.762,19.008 223.140 C 19.183 223.686,19.229 223.715,19.229 223.278 C 19.229 222.975,19.130 222.417,19.008 222.039 C 18.834 221.493,18.788 221.465,18.788 221.901 M261.768 223.485 C 259.678 227.178,255.844 231.215,252.117 233.648 C 249.682 235.238,249.241 235.614,250.854 234.726 C 254.951 232.472,260.255 227.037,262.364 222.934 C 263.102 221.497,262.664 221.903,261.768 223.485 M280.628 227.148 C 279.981 228.505,280.072 228.736,280.748 227.453 C 281.056 226.871,281.258 226.346,281.199 226.286 C 281.139 226.226,280.882 226.614,280.628 227.148 M20.144 227.273 C 20.139 227.500,20.305 228.058,20.513 228.512 C 21.001 229.576,21.008 229.081,20.523 227.824 C 20.319 227.293,20.148 227.045,20.144 227.273 M279.530 229.618 C 279.278 230.146,279.129 230.579,279.198 230.579 C 279.387 230.579,280.223 228.892,280.097 228.766 C 280.037 228.706,279.782 229.089,279.530 229.618 M20.956 229.540 C 20.925 229.866,21.822 231.989,21.941 231.870 C 22.001 231.810,21.808 231.216,21.513 230.550 C 21.217 229.884,20.967 229.429,20.956 229.540 M277.948 232.438 C 277.457 233.309,276.872 234.332,276.649 234.711 L 276.243 235.399 276.774 234.760 C 277.382 234.027,279.167 230.854,278.971 230.854 C 278.899 230.854,278.439 231.567,277.948 232.438 M22.040 232.369 C 22.036 234.824,30.574 245.425,34.845 248.266 C 35.301 248.570,35.117 248.345,34.435 247.766 C 29.591 243.656,26.162 239.584,23.561 234.857 C 22.725 233.337,22.041 232.218,22.040 232.369 M49.311 235.715 C 49.311 235.899,52.928 237.522,53.055 237.395 C 53.112 237.338,52.293 236.907,51.235 236.437 C 50.177 235.967,49.311 235.642,49.311 235.715 M274.761 237.397 C 272.885 240.039,268.052 244.928,265.220 247.047 C 262.502 249.082,261.987 249.650,264.394 247.957 C 266.801 246.265,270.093 243.281,272.213 240.871 C 274.049 238.782,276.483 235.537,276.213 235.537 C 276.140 235.537,275.487 236.374,274.761 237.397 M245.868 236.934 C 245.262 237.226,245.076 237.387,245.455 237.293 C 246.235 237.099,247.667 236.381,247.245 236.395 C 247.094 236.400,246.474 236.643,245.868 236.934 M241.736 238.292 C 241.388 238.441,241.337 238.529,241.598 238.529 C 241.825 238.529,242.259 238.422,242.562 238.292 C 242.909 238.143,242.960 238.055,242.700 238.055 C 242.472 238.055,242.039 238.162,241.736 238.292 M56.336 238.567 C 56.639 238.698,57.135 238.801,57.438 238.796 C 57.881 238.790,57.854 238.745,57.300 238.567 C 56.358 238.266,55.634 238.266,56.336 238.567 M235.753 239.046 C 236.554 239.102,237.793 239.102,238.508 239.045 C 239.222 238.989,238.567 238.943,237.052 238.944 C 235.537 238.944,234.953 238.991,235.753 239.046 M213.550 239.325 C 216.078 239.370,220.293 239.370,222.916 239.325 C 225.540 239.279,223.471 239.242,218.320 239.242 C 213.168 239.242,211.022 239.279,213.550 239.325 M61.501 239.584 C 61.767 239.653,62.200 239.653,62.466 239.584 C 62.731 239.515,62.514 239.458,61.983 239.458 C 61.453 239.458,61.236 239.515,61.501 239.584 M154.201 239.600 C 159.845 239.642,169.081 239.642,174.725 239.600 C 180.368 239.559,175.751 239.525,164.463 239.525 C 153.175 239.525,148.557 239.559,154.201 239.600 M75.000 239.876 C 81.326 239.917,91.677 239.917,98.003 239.876 C 104.329 239.835,99.153 239.801,86.501 239.801 C 73.850 239.801,68.674 239.835,75.000 239.876 M35.813 248.903 C 35.813 249.314,43.606 253.739,44.278 253.710 C 44.395 253.705,43.251 253.053,41.736 252.261 C 40.220 251.469,38.268 250.359,37.397 249.794 C 36.525 249.229,35.813 248.828,35.813 248.903 M260.094 250.415 C 257.202 252.103,256.816 252.485,259.390 251.112 C 261.133 250.182,262.901 249.029,262.534 249.060 C 262.459 249.066,261.360 249.676,260.094 250.415 M255.647 252.755 C 254.966 253.120,254.532 253.419,254.683 253.419 C 254.835 253.419,255.517 253.120,256.198 252.755 C 256.880 252.390,257.314 252.091,257.163 252.091 C 257.011 252.091,256.329 252.390,255.647 252.755 M252.755 254.014 C 252.149 254.306,251.963 254.467,252.342 254.373 C 253.122 254.179,254.554 253.461,254.132 253.475 C 253.981 253.480,253.361 253.723,252.755 254.014 M249.725 255.120 C 248.967 255.412,248.705 255.582,249.143 255.497 C 250.009 255.328,251.825 254.591,251.377 254.589 C 251.226 254.589,250.482 254.827,249.725 255.120 M246.970 255.923 C 246.622 256.072,246.571 256.160,246.832 256.160 C 247.059 256.160,247.493 256.053,247.796 255.923 C 248.143 255.774,248.194 255.686,247.934 255.686 C 247.707 255.686,247.273 255.793,246.970 255.923 M52.755 256.619 C 53.361 256.819,54.105 256.981,54.408 256.979 C 54.711 256.977,54.339 256.803,53.581 256.592 C 51.858 256.113,51.275 256.132,52.755 256.619 M244.904 256.474 C 244.350 256.651,244.323 256.696,244.766 256.702 C 245.069 256.707,245.565 256.604,245.868 256.474 C 246.570 256.172,245.846 256.172,244.904 256.474 M241.116 257.215 C 241.381 257.284,241.815 257.284,242.080 257.215 C 242.345 257.145,242.128 257.089,241.598 257.089 C 241.067 257.089,240.851 257.145,241.116 257.215 M230.250 257.506 C 232.115 257.554,235.090 257.554,236.862 257.506 C 238.633 257.458,237.107 257.419,233.471 257.419 C 229.835 257.419,228.385 257.458,230.250 257.506 M58.747 257.766 C 59.012 257.835,59.446 257.835,59.711 257.766 C 59.976 257.696,59.759 257.640,59.229 257.640 C 58.698 257.640,58.481 257.696,58.747 257.766 M192.375 257.782 C 197.348 257.824,205.406 257.824,210.282 257.782 C 215.157 257.740,211.088 257.706,201.240 257.706 C 191.391 257.706,187.402 257.740,192.375 257.782 M61.093 258.051 C 61.588 258.112,62.332 258.111,62.746 258.048 C 63.160 257.985,62.755 257.935,61.846 257.937 C 60.937 257.938,60.598 257.990,61.093 258.051 M125.297 258.058 C 135.953 258.098,153.308 258.098,163.865 258.058 C 174.421 258.018,165.702 257.985,144.490 257.985 C 123.278 257.985,114.641 258.018,125.297 258.058 " stroke="none" fill="#6c6c6c" fill-rule="evenodd"></path><path id="path5" d="M101.056 16.736 C 137.166 16.774,196.175 16.774,232.185 16.736 C 268.195 16.697,238.650 16.666,166.529 16.666 C 94.408 16.666,64.945 16.697,101.056 16.736 M301.377 17.248 C 303.271 17.458,305.007 17.593,305.234 17.549 C 305.812 17.435,300.207 16.798,298.957 16.835 C 298.394 16.852,299.483 17.038,301.377 17.248 M29.594 18.571 C 25.089 20.798,20.390 25.630,19.122 29.339 C 19.019 29.642,19.553 28.876,20.310 27.637 C 23.313 22.721,27.028 19.567,31.953 17.751 C 32.485 17.555,32.725 17.385,32.487 17.375 C 32.249 17.364,30.947 17.902,29.594 18.571 M309.772 18.487 C 311.132 18.777,312.367 18.972,312.517 18.922 C 312.831 18.817,308.335 17.892,307.713 17.934 C 307.486 17.949,308.413 18.198,309.772 18.487 M314.738 19.577 C 315.799 19.863,316.787 20.060,316.934 20.015 C 317.243 19.919,313.700 18.996,313.167 19.033 C 312.970 19.047,313.678 19.292,314.738 19.577 M317.769 20.386 C 318.072 20.516,318.506 20.622,318.733 20.622 C 318.993 20.622,318.942 20.535,318.595 20.386 C 318.292 20.255,317.858 20.149,317.631 20.149 C 317.370 20.149,317.421 20.236,317.769 20.386 M321.881 21.643 C 323.385 22.160,324.664 22.536,324.722 22.477 C 324.847 22.352,319.824 20.651,319.421 20.682 C 319.270 20.694,320.377 21.126,321.881 21.643 M325.344 22.819 C 325.572 22.959,326.067 23.157,326.446 23.258 C 326.925 23.386,327.009 23.364,326.722 23.187 C 326.494 23.047,325.999 22.849,325.620 22.747 C 325.141 22.619,325.057 22.641,325.344 22.819 M327.961 23.836 C 332.593 25.994,334.819 26.995,334.958 26.984 C 335.244 26.962,332.475 25.575,329.945 24.472 C 327.668 23.480,326.156 22.995,327.961 23.836 M335.262 27.108 C 335.262 27.193,335.913 27.590,336.708 27.988 C 351.917 35.613,364.966 48.356,373.413 63.831 C 374.551 65.917,375.482 67.495,375.482 67.338 C 375.482 66.798,370.754 58.552,368.942 55.931 C 361.995 45.883,353.650 38.025,342.589 31.112 C 339.504 29.185,335.262 26.866,335.262 27.108 M18.385 31.049 C 17.739 32.666,17.078 35.025,17.095 35.656 C 17.103 35.969,17.340 35.351,17.620 34.282 C 17.900 33.213,18.329 31.861,18.573 31.278 C 18.816 30.695,18.967 30.170,18.909 30.112 C 18.850 30.053,18.614 30.475,18.385 31.049 M37.563 35.941 C 36.949 36.371,35.941 38.237,36.189 38.485 C 36.270 38.566,36.415 38.322,36.510 37.941 C 36.606 37.561,37.021 36.927,37.434 36.532 L 38.184 35.813 167.095 35.744 L 296.006 35.674 167.072 35.606 C 54.188 35.546,38.067 35.587,37.563 35.941 M296.906 36.012 C 297.401 36.074,298.145 36.072,298.559 36.010 C 298.973 35.947,298.567 35.896,297.658 35.898 C 296.749 35.900,296.411 35.951,296.906 36.012 M299.934 36.283 C 300.277 36.349,300.773 36.346,301.036 36.277 C 301.300 36.208,301.019 36.155,300.413 36.158 C 299.807 36.161,299.592 36.217,299.934 36.283 M16.887 37.741 C 16.887 38.574,16.939 38.915,17.002 38.499 C 17.065 38.082,17.065 37.400,17.002 36.983 C 16.939 36.567,16.887 36.908,16.887 37.741 M301.997 36.554 C 302.262 36.623,302.696 36.623,302.961 36.554 C 303.227 36.484,303.010 36.428,302.479 36.428 C 301.949 36.428,301.732 36.484,301.997 36.554 M304.270 36.915 C 304.725 37.030,305.406 37.125,305.785 37.125 C 306.399 37.125,306.385 37.102,305.647 36.915 C 305.193 36.799,304.511 36.704,304.132 36.704 C 303.518 36.704,303.533 36.727,304.270 36.915 M309.780 38.035 C 310.840 38.320,311.828 38.517,311.975 38.472 C 312.285 38.376,308.741 37.453,308.208 37.490 C 308.012 37.504,308.719 37.749,309.780 38.035 M312.810 38.843 C 313.113 38.973,313.547 39.080,313.774 39.080 C 314.035 39.080,313.984 38.992,313.636 38.843 C 313.333 38.713,312.899 38.606,312.672 38.606 C 312.412 38.606,312.463 38.694,312.810 38.843 M35.934 46.281 C 35.934 50.448,35.972 52.152,36.019 50.069 C 36.065 47.986,36.065 44.576,36.019 42.493 C 35.972 40.410,35.934 42.114,35.934 46.281 M315.152 39.532 C 316.409 40.016,316.904 40.009,315.840 39.522 C 315.386 39.314,314.828 39.147,314.601 39.152 C 314.373 39.157,314.621 39.327,315.152 39.532 M317.631 40.289 C 317.707 40.365,318.946 40.893,320.386 41.462 C 336.494 47.838,349.421 59.168,356.999 73.554 C 357.917 75.296,358.671 76.609,358.673 76.470 C 358.682 75.988,355.581 70.366,353.798 67.631 C 347.508 57.985,337.890 49.683,326.221 43.827 C 322.662 42.041,317.083 39.743,317.631 40.289 M16.664 103.306 C 16.664 130.048,16.696 140.988,16.736 127.617 C 16.775 114.246,16.775 92.366,16.736 78.994 C 16.696 65.623,16.664 76.563,16.664 103.306 M282.163 59.159 C 285.306 59.204,290.451 59.204,293.595 59.159 C 296.739 59.115,294.167 59.079,287.879 59.079 C 281.591 59.079,279.019 59.115,282.163 59.159 M274.174 59.934 C 271.922 61.057,269.146 64.336,269.146 65.875 C 269.146 66.056,269.525 65.445,269.988 64.518 C 271.013 62.468,273.042 60.566,275.014 59.808 C 275.802 59.505,276.254 59.251,276.018 59.243 C 275.783 59.235,274.953 59.546,274.174 59.934 M300.485 59.423 C 300.828 59.489,301.324 59.487,301.587 59.418 C 301.851 59.349,301.570 59.295,300.964 59.298 C 300.358 59.301,300.143 59.358,300.485 59.423 M305.226 60.173 C 306.964 60.546,308.429 60.809,308.482 60.756 C 308.624 60.614,304.853 59.785,303.353 59.628 C 302.645 59.554,303.488 59.799,305.226 60.173 M310.171 61.452 C 310.992 61.743,311.711 61.934,311.770 61.876 C 311.898 61.747,309.389 60.873,308.973 60.902 C 308.811 60.913,309.350 61.160,310.171 61.452 M313.472 62.691 C 314.291 63.063,315.008 63.321,315.065 63.264 C 315.184 63.144,312.544 61.976,312.208 61.999 C 312.084 62.008,312.654 62.319,313.472 62.691 M318.814 65.358 C 325.624 69.431,332.216 76.028,335.698 82.254 C 336.717 84.077,337.283 84.716,336.471 83.127 C 333.989 78.269,328.531 71.988,323.537 68.240 C 321.243 66.518,317.085 63.912,316.632 63.912 C 316.502 63.912,317.484 64.563,318.814 65.358 M268.934 67.218 C 268.934 67.748,268.991 67.965,269.060 67.700 C 269.130 67.435,269.130 67.001,269.060 66.736 C 268.991 66.470,268.934 66.687,268.934 67.218 M375.507 67.906 C 375.507 68.058,375.806 68.740,376.171 69.421 C 376.536 70.103,376.835 70.537,376.835 70.386 C 376.835 70.234,376.536 69.552,376.171 68.871 C 375.806 68.189,375.507 67.755,375.507 67.906 M268.729 110.055 C 268.729 133.085,268.762 142.466,268.802 130.901 C 268.841 119.336,268.841 100.493,268.802 89.028 C 268.762 77.563,268.729 87.025,268.729 110.055 M377.442 72.314 C 377.447 72.466,377.690 73.085,377.981 73.691 C 378.273 74.298,378.434 74.483,378.340 74.105 C 378.146 73.325,377.428 71.893,377.442 72.314 M378.617 75.358 C 379.205 77.278,380.678 81.357,380.695 81.115 C 380.723 80.733,378.848 75.172,378.620 74.958 C 378.523 74.868,378.522 75.047,378.617 75.358 M35.670 105.096 C 35.670 121.157,35.703 127.768,35.744 119.787 C 35.784 111.806,35.784 98.666,35.744 90.586 C 35.703 82.506,35.670 89.036,35.670 105.096 M358.741 77.135 C 359.324 78.731,360.446 81.244,360.535 81.155 C 360.655 81.035,359.026 77.104,358.759 76.870 C 358.666 76.788,358.658 76.908,358.741 77.135 M288.006 78.306 C 287.934 78.495,287.907 92.906,287.946 110.331 L 288.017 142.011 289.877 142.031 L 291.738 142.052 289.946 141.950 L 288.154 141.848 288.154 110.049 L 288.154 78.250 292.769 78.168 L 297.383 78.085 292.760 78.023 C 289.269 77.977,288.105 78.046,288.006 78.306 M297.819 78.338 C 297.882 78.394,298.740 78.508,299.725 78.592 C 300.853 78.688,301.209 78.662,300.689 78.523 C 299.847 78.298,297.610 78.154,297.819 78.338 M304.110 79.634 C 304.931 79.925,305.651 80.116,305.709 80.058 C 305.838 79.929,303.328 79.055,302.912 79.083 C 302.750 79.095,303.289 79.342,304.110 79.634 M308.201 81.398 C 315.079 85.090,319.987 91.270,321.888 98.629 C 322.259 100.065,322.569 100.975,322.576 100.651 C 322.714 94.655,315.189 84.595,307.792 80.886 C 305.446 79.710,305.738 80.075,308.201 81.398 M360.611 81.612 C 360.641 81.992,362.782 88.202,362.794 87.943 C 362.814 87.495,360.895 81.543,360.730 81.543 C 360.662 81.543,360.608 81.574,360.611 81.612 M380.755 81.818 C 380.755 82.045,380.862 82.479,380.992 82.782 C 381.141 83.130,381.228 83.181,381.228 82.920 C 381.228 82.693,381.122 82.259,380.992 81.956 C 380.843 81.609,380.755 81.558,380.755 81.818 M381.405 84.022 C 381.477 84.401,381.839 86.074,382.210 87.741 C 382.580 89.408,383.002 91.329,383.147 92.011 C 383.293 92.693,383.425 93.036,383.442 92.773 C 383.482 92.114,382.193 86.090,381.687 84.573 C 381.459 83.891,381.332 83.643,381.405 84.022 M337.489 85.537 C 337.489 85.689,337.726 86.247,338.017 86.777 C 338.307 87.307,338.544 87.617,338.544 87.466 C 338.544 87.314,338.307 86.756,338.017 86.226 C 337.726 85.696,337.489 85.386,337.489 85.537 M338.725 88.430 C 338.827 88.809,339.025 89.304,339.165 89.532 C 339.342 89.819,339.364 89.735,339.236 89.256 C 339.135 88.877,338.937 88.382,338.796 88.154 C 338.619 87.867,338.597 87.951,338.725 88.430 M362.857 88.705 C 362.871 89.421,363.304 90.597,363.314 89.945 C 363.319 89.642,363.216 89.146,363.085 88.843 C 362.940 88.505,362.852 88.452,362.857 88.705 M339.693 91.047 C 339.684 91.198,339.920 92.066,340.217 92.975 C 340.514 93.884,340.683 94.199,340.592 93.674 C 340.410 92.628,339.718 90.605,339.693 91.047 M363.962 93.113 C 363.957 93.340,364.188 94.704,364.476 96.143 C 364.833 97.929,364.954 98.279,364.856 97.245 C 364.712 95.719,363.982 92.344,363.962 93.113 M340.831 95.179 C 340.834 95.482,340.931 96.102,341.047 96.556 C 341.236 97.299,341.258 97.313,341.262 96.694 C 341.265 96.315,341.168 95.696,341.047 95.317 C 340.874 94.777,340.827 94.747,340.831 95.179 M384.086 97.521 C 384.086 98.051,384.143 98.268,384.212 98.003 C 384.281 97.738,384.281 97.304,384.212 97.039 C 384.143 96.773,384.086 96.990,384.086 97.521 M384.373 99.725 C 384.373 100.406,384.426 100.685,384.492 100.344 C 384.558 100.003,384.558 99.446,384.492 99.105 C 384.426 98.764,384.373 99.043,384.373 99.725 M365.078 99.725 C 365.078 100.255,365.134 100.472,365.204 100.207 C 365.273 99.941,365.273 99.508,365.204 99.242 C 365.134 98.977,365.078 99.194,365.078 99.725 M341.673 100.275 C 341.673 100.957,341.727 101.236,341.792 100.895 C 341.858 100.554,341.858 99.997,341.792 99.656 C 341.727 99.315,341.673 99.594,341.673 100.275 M365.359 101.791 C 365.362 102.397,365.418 102.612,365.484 102.270 C 365.550 101.927,365.547 101.431,365.479 101.168 C 365.410 100.904,365.356 101.185,365.359 101.791 M384.658 102.617 C 384.660 103.526,384.711 103.865,384.773 103.370 C 384.834 102.875,384.833 102.131,384.770 101.717 C 384.707 101.303,384.657 101.708,384.658 102.617 M322.653 102.204 C 322.653 102.734,322.710 102.951,322.779 102.686 C 322.849 102.421,322.849 101.987,322.779 101.722 C 322.710 101.457,322.653 101.674,322.653 102.204 M341.966 103.581 C 341.966 104.718,342.015 105.183,342.074 104.614 C 342.133 104.046,342.133 103.116,342.074 102.548 C 342.015 101.980,341.966 102.445,341.966 103.581 M322.979 108.127 C 322.979 110.854,323.020 111.932,323.070 110.523 C 323.121 109.114,323.120 106.883,323.070 105.565 C 323.020 104.246,322.979 105.399,322.979 108.127 M365.647 104.683 C 365.647 105.517,365.699 105.857,365.762 105.441 C 365.825 105.024,365.825 104.342,365.762 103.926 C 365.699 103.509,365.647 103.850,365.647 104.683 M384.968 111.433 C 384.968 115.220,385.007 116.808,385.054 114.961 C 385.102 113.114,385.102 110.015,385.054 108.074 C 385.007 106.133,384.968 107.645,384.968 111.433 M342.239 107.576 C 342.240 108.636,342.290 109.036,342.350 108.465 C 342.409 107.893,342.408 107.026,342.348 106.537 C 342.287 106.048,342.238 106.515,342.239 107.576 M365.954 111.295 C 365.954 113.946,365.995 115.031,366.045 113.705 C 366.096 112.379,366.096 110.210,366.045 108.884 C 365.995 107.559,365.954 108.643,365.954 111.295 M341.971 111.983 C 341.970 113.347,342.017 113.940,342.075 113.300 C 342.132 112.661,342.133 111.545,342.076 110.821 C 342.019 110.097,341.972 110.620,341.971 111.983 M322.665 114.325 C 322.665 115.007,322.718 115.286,322.784 114.945 C 322.850 114.604,322.850 114.046,322.784 113.705 C 322.718 113.364,322.665 113.643,322.665 114.325 M341.677 115.840 C 341.679 116.598,341.732 116.875,341.795 116.456 C 341.859 116.038,341.857 115.418,341.792 115.079 C 341.726 114.740,341.675 115.083,341.677 115.840 M365.647 117.631 C 365.647 118.464,365.699 118.805,365.762 118.388 C 365.825 117.972,365.825 117.290,365.762 116.873 C 365.699 116.457,365.647 116.798,365.647 117.631 M341.216 118.902 C 341.115 119.761,341.088 120.518,341.155 120.586 C 341.222 120.653,341.364 120.010,341.471 119.157 C 341.577 118.304,341.605 117.546,341.532 117.473 C 341.459 117.401,341.317 118.044,341.216 118.902 M384.658 119.972 C 384.660 120.882,384.711 121.220,384.773 120.725 C 384.834 120.230,384.833 119.486,384.770 119.072 C 384.707 118.658,384.657 119.063,384.658 119.972 M321.530 120.153 C 321.350 120.932,321.253 121.620,321.314 121.681 C 321.375 121.743,321.577 121.160,321.763 120.386 C 321.949 119.612,322.046 118.924,321.979 118.857 C 321.912 118.790,321.710 119.373,321.530 120.153 M365.359 120.523 C 365.362 121.129,365.418 121.345,365.484 121.002 C 365.550 120.660,365.547 120.164,365.479 119.900 C 365.410 119.637,365.356 119.917,365.359 120.523 M364.767 123.996 C 364.580 125.222,364.480 126.280,364.547 126.347 C 364.613 126.413,364.823 125.466,365.014 124.242 C 365.204 123.019,365.303 121.961,365.234 121.892 C 365.165 121.823,364.955 122.770,364.767 123.996 M384.187 123.581 C 384.084 124.589,384.056 125.470,384.124 125.538 C 384.193 125.607,384.337 124.842,384.444 123.838 C 384.552 122.835,384.580 121.954,384.507 121.881 C 384.435 121.808,384.291 122.573,384.187 123.581 M320.003 124.763 C 318.281 129.155,314.390 133.791,310.054 136.622 C 307.463 138.313,307.033 138.698,308.953 137.607 C 313.722 134.897,318.243 129.780,320.265 124.805 C 320.651 123.855,320.918 123.030,320.858 122.970 C 320.798 122.910,320.414 123.717,320.003 124.763 M339.709 125.935 C 339.378 127.170,339.157 128.230,339.217 128.290 C 339.278 128.350,339.599 127.391,339.932 126.158 C 340.264 124.925,340.486 123.865,340.423 123.802 C 340.361 123.740,340.039 124.700,339.709 125.935 M363.820 128.696 C 363.561 129.775,363.399 130.708,363.460 130.769 C 363.521 130.830,363.786 130.001,364.050 128.926 C 364.313 127.851,364.475 126.918,364.410 126.852 C 364.344 126.787,364.079 127.617,363.820 128.696 M383.095 130.065 C 382.831 131.442,382.668 132.622,382.732 132.686 C 382.796 132.750,383.066 131.677,383.333 130.303 C 383.600 128.929,383.764 127.749,383.697 127.682 C 383.630 127.616,383.359 128.688,383.095 130.065 M338.024 131.057 C 333.648 142.575,323.981 152.246,311.771 157.318 C 310.594 157.808,309.683 158.260,309.746 158.323 C 309.961 158.538,315.877 155.755,318.344 154.279 C 327.655 148.705,334.388 140.944,338.147 131.451 C 338.706 130.037,339.113 128.829,339.051 128.766 C 338.988 128.703,338.526 129.734,338.024 131.057 M362.475 133.549 C 362.073 134.865,361.791 135.987,361.847 136.043 C 361.902 136.099,362.282 135.074,362.690 133.765 C 363.098 132.455,363.381 131.333,363.318 131.270 C 363.255 131.207,362.876 132.233,362.475 133.549 M382.266 133.919 C 382.036 135.067,382.259 135.290,382.507 134.160 C 382.611 133.684,382.640 133.237,382.569 133.166 C 382.499 133.096,382.363 133.435,382.266 133.919 M381.309 137.369 C 380.970 138.520,380.741 139.511,380.801 139.570 C 380.860 139.630,381.188 138.738,381.529 137.590 C 381.870 136.441,382.098 135.450,382.037 135.388 C 381.975 135.327,381.647 136.218,381.309 137.369 M361.188 137.221 C 361.018 137.708,360.927 138.154,360.986 138.213 C 361.045 138.272,361.232 137.922,361.402 137.435 C 361.572 136.948,361.662 136.502,361.603 136.443 C 361.544 136.384,361.357 136.734,361.188 137.221 M306.336 138.843 C 305.806 139.133,305.471 139.376,305.592 139.382 C 305.884 139.398,307.438 138.590,307.438 138.423 C 307.438 138.242,307.422 138.249,306.336 138.843 M360.375 139.268 C 359.914 140.281,360.002 140.497,360.501 139.576 C 360.734 139.146,360.873 138.743,360.810 138.680 C 360.747 138.617,360.551 138.881,360.375 139.268 M303.444 140.109 C 302.686 140.477,302.376 140.699,302.755 140.602 C 303.541 140.401,305.514 139.413,305.096 139.429 C 304.945 139.435,304.201 139.741,303.444 140.109 M380.220 140.964 C 379.813 142.292,380.010 142.490,380.441 141.185 C 380.622 140.634,380.718 140.130,380.652 140.064 C 380.587 139.999,380.392 140.404,380.220 140.964 M358.569 143.193 C 351.349 157.775,337.689 170.346,321.964 176.878 C 320.787 177.367,319.874 177.817,319.935 177.878 C 319.996 177.939,321.275 177.448,322.776 176.787 C 335.891 171.015,347.063 161.812,354.543 150.620 C 356.544 147.625,360.235 140.859,359.997 140.621 C 359.940 140.564,359.297 141.721,358.569 143.193 M298.144 141.520 C 298.563 141.583,299.183 141.582,299.522 141.516 C 299.861 141.451,299.518 141.399,298.760 141.401 C 298.003 141.403,297.726 141.457,298.144 141.520 M293.864 141.797 C 294.353 141.857,295.221 141.858,295.793 141.799 C 296.364 141.739,295.964 141.689,294.904 141.688 C 293.843 141.687,293.375 141.736,293.864 141.797 M379.369 143.281 C 379.200 143.768,379.109 144.215,379.168 144.274 C 379.227 144.333,379.414 143.982,379.584 143.496 C 379.753 143.009,379.844 142.562,379.785 142.503 C 379.726 142.444,379.539 142.794,379.369 143.281 M377.463 147.986 C 376.981 149.070,376.631 150.001,376.684 150.054 C 376.737 150.107,377.176 149.265,377.660 148.183 C 378.143 147.101,378.494 146.171,378.439 146.116 C 378.384 146.061,377.945 146.902,377.463 147.986 M268.901 152.637 C 268.795 155.114,272.818 160.393,274.755 160.318 C 274.927 160.312,274.591 160.054,274.007 159.746 C 271.675 158.516,269.693 155.808,269.167 153.132 C 269.014 152.353,268.920 152.178,268.901 152.637 M35.941 167.355 C 35.941 175.537,35.976 178.845,36.019 174.705 C 36.062 170.566,36.062 163.871,36.019 159.829 C 35.976 155.787,35.941 159.174,35.941 167.355 M373.823 155.305 C 363.531 173.994,345.009 189.235,323.340 196.845 C 322.161 197.259,321.246 197.646,321.305 197.705 C 321.452 197.853,325.977 196.198,329.339 194.768 C 348.577 186.584,364.005 173.068,373.798 155.817 C 374.734 154.168,375.456 152.774,375.401 152.720 C 375.346 152.665,374.636 153.828,373.823 155.305 M99.311 155.096 C 99.903 155.702,100.449 156.198,100.525 156.198 C 100.601 156.198,100.179 155.702,99.587 155.096 C 98.995 154.490,98.449 153.994,98.373 153.994 C 98.297 153.994,98.719 154.490,99.311 155.096 M201.227 157.369 L 200.138 158.540 201.309 157.451 C 202.397 156.438,202.606 156.198,202.398 156.198 C 202.352 156.198,201.826 156.725,201.227 157.369 M307.025 159.120 C 305.964 159.493,304.477 159.903,303.719 160.032 C 302.633 160.217,302.530 160.273,303.234 160.298 C 304.070 160.329,309.366 158.799,309.366 158.527 C 309.366 158.327,309.067 158.403,307.025 159.120 M300.069 160.528 C 300.486 160.591,301.167 160.591,301.584 160.528 C 302.001 160.465,301.660 160.413,300.826 160.413 C 299.993 160.413,299.652 160.465,300.069 160.528 M296.068 160.805 C 296.557 160.866,297.425 160.867,297.997 160.807 C 298.568 160.747,298.168 160.698,297.107 160.696 C 296.047 160.695,295.579 160.744,296.068 160.805 M282.042 161.088 C 284.514 161.133,288.481 161.133,290.858 161.088 C 293.234 161.042,291.212 161.004,286.364 161.004 C 281.515 161.005,279.570 161.042,282.042 161.088 M108.953 164.738 C 109.853 165.647,110.651 166.391,110.727 166.391 C 110.802 166.391,110.128 165.647,109.229 164.738 C 108.329 163.829,107.531 163.085,107.455 163.085 C 107.380 163.085,108.054 163.829,108.953 164.738 M16.931 176.171 C 16.931 182.989,16.967 185.739,17.011 182.281 C 17.055 178.824,17.054 173.246,17.011 169.885 C 16.967 166.524,16.931 169.353,16.931 176.171 M116.529 171.987 C 116.529 172.034,116.932 172.437,117.424 172.882 L 118.320 173.691 117.510 172.796 C 116.756 171.962,116.529 171.774,116.529 171.987 M185.251 173.347 L 183.884 174.793 185.331 173.426 C 186.674 172.156,186.903 171.901,186.698 171.901 C 186.654 171.901,186.003 172.552,185.251 173.347 M318.320 178.384 C 317.631 178.716,317.608 178.754,318.182 178.614 C 318.962 178.423,319.840 177.976,319.421 177.982 C 319.270 177.984,318.774 178.165,318.320 178.384 M314.738 179.614 C 313.526 180.045,312.668 180.407,312.831 180.419 C 313.172 180.444,317.100 179.135,317.308 178.927 C 317.572 178.663,316.935 178.834,314.738 179.614 M177.947 180.372 L 176.997 181.405 178.030 180.456 C 178.992 179.572,179.190 179.339,178.980 179.339 C 178.934 179.339,178.469 179.804,177.947 180.372 M311.157 180.716 C 310.810 180.865,310.759 180.953,311.019 180.953 C 311.247 180.953,311.680 180.846,311.983 180.716 C 312.331 180.567,312.382 180.479,312.121 180.479 C 311.894 180.479,311.460 180.586,311.157 180.716 M307.989 181.564 C 307.004 181.850,306.641 182.022,307.182 181.948 C 308.324 181.790,310.805 181.046,310.193 181.046 C 309.966 181.045,308.974 181.279,307.989 181.564 M302.893 182.665 C 301.602 182.965,301.202 183.119,301.928 183.038 C 303.415 182.872,306.431 182.155,305.647 182.154 C 305.344 182.154,304.105 182.384,302.893 182.665 M36.211 191.322 C 36.211 196.171,36.249 198.115,36.294 195.644 C 36.340 193.172,36.340 189.205,36.294 186.828 C 36.248 184.452,36.211 186.474,36.211 191.322 M297.934 183.471 C 296.997 183.639,296.956 183.672,297.658 183.692 C 298.113 183.704,298.981 183.612,299.587 183.487 C 301.029 183.189,299.588 183.175,297.934 183.471 M294.972 183.941 C 295.313 184.007,295.871 184.007,296.212 183.941 C 296.553 183.875,296.274 183.822,295.592 183.822 C 294.910 183.822,294.632 183.875,294.972 183.941 M292.080 184.219 C 292.497 184.282,293.178 184.282,293.595 184.219 C 294.012 184.156,293.671 184.105,292.837 184.105 C 292.004 184.105,291.663 184.156,292.080 184.219 M277.066 184.497 C 277.559 184.558,278.364 184.558,278.857 184.497 C 279.349 184.436,278.946 184.386,277.961 184.386 C 276.977 184.386,276.574 184.436,277.066 184.497 M287.810 184.499 C 288.454 184.557,289.508 184.557,290.152 184.499 C 290.795 184.441,290.269 184.394,288.981 184.394 C 287.693 184.394,287.166 184.441,287.810 184.499 M273.638 185.245 C 271.120 186.417,268.277 189.741,268.334 191.445 C 268.342 191.681,268.590 191.244,268.886 190.475 C 269.869 187.921,272.158 185.864,275.010 184.973 C 275.648 184.773,275.923 184.603,275.620 184.594 C 275.317 184.585,274.425 184.878,273.638 185.245 M172.161 185.882 L 171.212 186.915 172.245 185.965 C 173.207 185.082,173.405 184.848,173.195 184.848 C 173.149 184.848,172.684 185.313,172.161 185.882 M17.202 196.694 C 17.202 201.164,17.240 202.992,17.286 200.758 C 17.332 198.523,17.332 194.866,17.286 192.631 C 17.240 190.396,17.202 192.225,17.202 196.694 M267.865 198.898 C 267.865 200.186,267.912 200.713,267.970 200.069 C 268.028 199.425,268.028 198.371,267.970 197.727 C 267.912 197.083,267.865 197.610,267.865 198.898 M318.871 198.347 C 318.113 198.627,317.679 198.855,317.906 198.855 C 318.134 198.855,318.939 198.627,319.697 198.347 C 320.455 198.068,320.888 197.839,320.661 197.839 C 320.434 197.839,319.628 198.068,318.871 198.347 M316.116 199.174 C 315.768 199.323,315.717 199.410,315.978 199.410 C 316.205 199.410,316.639 199.304,316.942 199.174 C 317.289 199.024,317.340 198.937,317.080 198.937 C 316.853 198.937,316.419 199.043,316.116 199.174 M312.397 200.138 C 311.109 200.488,310.220 200.786,310.422 200.800 C 310.837 200.830,315.227 199.740,315.404 199.563 C 315.633 199.335,314.690 199.515,312.397 200.138 M306.749 201.398 C 305.459 201.698,305.059 201.852,305.785 201.771 C 307.271 201.605,310.287 200.888,309.504 200.887 C 309.201 200.887,307.961 201.117,306.749 201.398 M267.568 202.755 C 267.568 203.437,267.622 203.716,267.688 203.375 C 267.753 203.034,267.753 202.476,267.688 202.135 C 267.622 201.794,267.568 202.073,267.568 202.755 M300.826 202.342 C 299.690 202.530,299.132 202.692,299.587 202.702 C 300.041 202.712,301.343 202.558,302.479 202.359 C 303.616 202.160,304.174 201.998,303.719 201.999 C 303.264 201.999,301.963 202.154,300.826 202.342 M297.180 202.950 C 297.522 203.016,298.018 203.013,298.281 202.944 C 298.545 202.875,298.264 202.821,297.658 202.824 C 297.052 202.827,296.837 202.884,297.180 202.950 M294.288 203.228 C 294.706 203.291,295.326 203.290,295.665 203.224 C 296.004 203.159,295.661 203.107,294.904 203.109 C 294.146 203.111,293.869 203.165,294.288 203.228 M290.152 203.506 C 290.720 203.566,291.649 203.566,292.218 203.506 C 292.786 203.447,292.321 203.398,291.185 203.398 C 290.048 203.398,289.583 203.447,290.152 203.506 M286.612 203.966 C 286.531 204.177,286.514 204.828,286.574 205.412 C 286.680 206.433,286.686 206.424,286.731 205.181 L 286.777 203.888 287.948 203.783 L 289.118 203.678 287.939 203.629 C 287.149 203.597,286.711 203.708,286.612 203.966 M36.475 208.402 C 36.475 210.826,36.518 211.781,36.569 210.524 C 36.620 209.267,36.620 207.283,36.568 206.116 C 36.517 204.949,36.475 205.978,36.475 208.402 M267.287 205.096 C 267.290 205.702,267.347 205.918,267.412 205.575 C 267.478 205.233,267.476 204.737,267.407 204.473 C 267.338 204.210,267.284 204.490,267.287 205.096 M266.827 207.736 C 266.724 208.517,266.695 209.211,266.762 209.278 C 266.830 209.346,266.973 208.766,267.080 207.989 C 267.187 207.212,267.216 206.518,267.145 206.447 C 267.074 206.376,266.931 206.956,266.827 207.736 M286.290 207.438 C 286.290 207.968,286.347 208.185,286.416 207.920 C 286.485 207.655,286.485 207.221,286.416 206.956 C 286.347 206.691,286.290 206.908,286.290 207.438 M17.464 211.983 C 17.464 214.105,17.508 214.936,17.560 213.831 C 17.613 212.726,17.612 210.990,17.559 209.974 C 17.507 208.958,17.464 209.862,17.464 211.983 M266.000 211.744 C 263.799 221.151,258.773 228.856,251.931 233.316 C 249.340 235.005,248.901 235.396,250.826 234.300 C 256.512 231.063,261.404 225.186,264.188 218.247 C 265.315 215.439,266.775 210.379,266.605 209.871 C 266.551 209.709,266.279 210.552,266.000 211.744 M285.289 213.251 C 285.188 213.882,285.159 214.452,285.225 214.518 C 285.291 214.584,285.431 214.125,285.537 213.499 C 285.643 212.872,285.672 212.302,285.601 212.231 C 285.531 212.161,285.390 212.619,285.289 213.251 M36.709 215.014 C 36.712 215.620,36.768 215.835,36.834 215.493 C 36.900 215.150,36.897 214.654,36.828 214.391 C 36.759 214.127,36.706 214.408,36.709 215.014 M284.241 217.698 C 283.215 221.594,283.118 222.071,283.614 220.799 C 284.168 219.377,285.175 215.443,285.068 215.121 C 285.022 214.984,284.650 216.144,284.241 217.698 M17.706 217.080 C 17.706 217.762,17.760 218.041,17.825 217.700 C 17.891 217.359,17.891 216.801,17.825 216.460 C 17.760 216.119,17.706 216.398,17.706 217.080 M37.063 217.631 C 37.684 223.736,42.441 231.094,47.994 234.540 C 50.049 235.815,53.933 237.619,54.151 237.401 C 54.210 237.342,53.299 236.901,52.126 236.422 C 44.508 233.307,39.312 226.956,37.428 218.457 C 37.002 216.539,36.936 216.390,37.063 217.631 M17.970 219.284 C 17.970 219.814,18.027 220.031,18.096 219.766 C 18.166 219.501,18.166 219.067,18.096 218.802 C 18.027 218.537,17.970 218.753,17.970 219.284 M18.242 220.937 C 18.239 221.315,18.336 221.935,18.457 222.314 C 18.754 223.240,18.754 222.240,18.457 221.074 C 18.268 220.332,18.246 220.318,18.242 220.937 M282.400 223.722 C 282.230 224.209,282.139 224.655,282.198 224.714 C 282.257 224.773,282.444 224.423,282.614 223.936 C 282.784 223.449,282.874 223.003,282.815 222.944 C 282.757 222.885,282.569 223.235,282.400 223.722 M18.888 224.105 C 19.992 231.800,26.634 242.319,34.022 248.075 C 37.524 250.803,43.867 254.351,46.281 254.933 L 46.970 255.099 46.281 254.778 C 45.902 254.601,44.437 253.923,43.026 253.270 C 31.108 247.760,23.051 238.265,19.423 225.453 C 19.042 224.105,18.801 223.499,18.888 224.105 M281.175 226.768 C 280.772 227.703,280.486 228.512,280.540 228.566 C 280.594 228.620,280.969 227.900,281.374 226.967 C 281.779 226.033,282.065 225.224,282.010 225.169 C 281.954 225.113,281.579 225.833,281.175 226.768 M278.289 232.576 C 274.800 238.916,268.891 245.218,262.538 249.378 C 260.312 250.835,259.791 251.246,260.882 250.684 C 267.109 247.478,275.527 238.697,279.034 231.749 C 279.999 229.839,279.477 230.417,278.289 232.576 M245.240 236.707 C 244.439 237.014,243.834 237.315,243.895 237.375 C 244.023 237.503,247.107 236.381,247.107 236.206 C 247.107 236.025,246.814 236.104,245.240 236.707 M241.047 238.036 C 240.062 238.308,239.566 238.531,239.945 238.532 C 240.324 238.533,241.315 238.306,242.149 238.028 C 244.077 237.384,243.392 237.389,241.047 238.036 M55.785 238.017 C 56.088 238.147,56.522 238.253,56.749 238.253 C 57.010 238.253,56.959 238.166,56.612 238.017 C 56.309 237.886,55.875 237.780,55.647 237.780 C 55.387 237.780,55.438 237.867,55.785 238.017 M57.851 238.567 C 58.230 238.689,58.788 238.788,59.091 238.788 C 59.527 238.788,59.499 238.742,58.953 238.567 C 58.574 238.446,58.017 238.347,57.713 238.347 C 57.277 238.347,57.306 238.393,57.851 238.567 M229.959 238.773 C 231.663 238.821,234.452 238.821,236.157 238.773 C 237.862 238.725,236.467 238.685,233.058 238.685 C 229.649 238.685,228.254 238.725,229.959 238.773 M202.842 239.049 C 205.996 239.094,211.079 239.094,214.137 239.049 C 217.195 239.005,214.614 238.969,208.402 238.969 C 202.190 238.969,199.688 239.005,202.842 239.049 M61.915 239.313 C 62.256 239.379,62.813 239.379,63.154 239.313 C 63.495 239.247,63.216 239.193,62.534 239.193 C 61.853 239.193,61.574 239.247,61.915 239.313 M127.893 239.325 C 138.158 239.365,154.955 239.365,165.220 239.325 C 175.486 239.285,167.087 239.252,146.556 239.252 C 126.026 239.252,117.627 239.285,127.893 239.325 M257.025 252.439 C 255.434 253.230,253.636 254.085,253.030 254.341 C 252.424 254.597,252.238 254.736,252.617 254.652 C 253.464 254.462,260.055 251.330,260.055 251.118 C 260.055 250.918,260.321 250.802,257.025 252.439 M249.587 255.510 C 248.602 255.865,247.927 256.165,248.087 256.177 C 248.456 256.204,251.791 255.084,251.791 254.933 C 251.791 254.748,251.460 254.834,249.587 255.510 M47.827 255.498 C 48.298 255.715,49.042 255.964,49.479 256.050 C 50.161 256.184,50.136 256.152,49.311 255.829 C 47.823 255.245,46.772 255.011,47.827 255.498 M51.495 256.636 C 52.166 256.846,53.158 257.080,53.699 257.156 C 54.240 257.232,53.815 257.050,52.755 256.752 C 50.571 256.139,49.637 256.052,51.495 256.636 M245.041 256.782 C 243.829 257.108,243.522 257.252,244.215 257.168 C 245.382 257.027,248.085 256.250,247.383 256.257 C 247.156 256.260,246.102 256.496,245.041 256.782 M55.372 257.576 C 55.751 257.697,56.371 257.794,56.749 257.791 C 57.368 257.787,57.354 257.765,56.612 257.576 C 55.446 257.279,54.446 257.279,55.372 257.576 M235.893 257.780 C 236.922 257.833,238.534 257.833,239.474 257.779 C 240.415 257.726,239.573 257.682,237.603 257.683 C 235.634 257.683,234.864 257.727,235.893 257.780 M57.920 258.041 C 58.185 258.110,58.619 258.110,58.884 258.041 C 59.149 257.972,58.933 257.915,58.402 257.915 C 57.872 257.915,57.655 257.972,57.920 258.041 M214.807 258.058 C 218.330 258.101,224.094 258.101,227.617 258.058 C 231.140 258.014,228.258 257.978,221.212 257.978 C 214.167 257.978,211.284 258.014,214.807 258.058 M60.128 258.324 C 60.547 258.388,61.166 258.386,61.505 258.321 C 61.844 258.255,61.501 258.203,60.744 258.206 C 59.986 258.208,59.709 258.261,60.128 258.324 M155.737 258.333 C 163.438 258.374,175.959 258.374,183.561 258.333 C 191.163 258.293,184.862 258.259,169.559 258.259 C 154.256 258.259,148.036 258.293,155.737 258.333 M82.025 258.609 C 92.972 258.649,110.885 258.649,121.832 258.609 C 132.779 258.569,123.822 258.536,101.928 258.536 C 80.034 258.536,71.078 258.569,82.025 258.609 " stroke="none" fill="#bdbcbc" fill-rule="evenodd"></path><path id="path6" d="M184.435 78.686 C 174.070 79.817,163.559 84.895,154.915 92.948 C 152.207 95.472,152.646 95.460,150.138 93.073 C 125.541 69.665,87.284 76.000,80.849 104.545 C 77.882 117.707,82.589 135.582,91.985 146.832 C 99.433 155.751,118.093 173.855,144.169 197.462 C 152.249 204.777,151.903 204.717,157.350 199.748 C 182.268 177.018,210.381 148.798,215.829 141.047 C 227.986 123.752,227.597 102.259,214.898 89.571 C 207.210 81.888,195.016 77.532,184.435 78.686 M119.815 79.347 C 131.141 80.349,140.486 84.668,149.633 93.129 C 152.797 96.055,152.383 95.986,154.416 93.926 C 166.906 81.270,185.331 75.973,199.904 80.849 C 226.788 89.844,232.606 121.788,211.696 145.592 C 202.010 156.619,183.282 175.152,159.229 197.513 C 152.845 203.447,152.032 203.802,149.567 201.728 C 139.581 193.322,108.294 163.841,99.495 154.545 C 89.603 144.094,86.269 139.038,83.192 129.815 C 77.786 113.613,80.072 98.674,89.379 89.382 C 96.698 82.076,108.115 78.311,119.815 79.347 " stroke="none" fill="#fc9494" fill-rule="evenodd"></path></g></svg>